<svg version="1.1" id="Layer_1" xmlns="http://www.w3.org/2000/svg" xmlns:xlink="http://www.w3.org/1999/xlink" x="0px" y="0px"
	 width="100%" viewBox="0 0 316 316" enable-background="new 0 0 316 316" xml:space="preserve">
<path fill="#FFFFFF" opacity="1.000000" stroke="none" 
	d="
M179.000000,317.000000 
	C119.333359,317.000000 60.166721,317.000000 1.000063,317.000000 
	C1.000042,211.666748 1.000042,106.333488 1.000021,1.000176 
	C106.333199,1.000118 211.666397,1.000118 316.999695,1.000059 
	C316.999817,106.333153 316.999817,211.666306 316.999908,316.999725 
	C271.166656,317.000000 225.333328,317.000000 179.000000,317.000000 
M261.926208,146.252090 
	C259.637878,142.420517 258.262268,144.346207 256.335388,147.041641 
	C255.887405,147.037888 255.439438,147.034134 254.982056,146.230927 
	C254.798157,145.426071 254.730469,144.570160 254.404434,143.827728 
	C253.847595,142.559769 253.128754,141.362946 252.477966,140.136246 
	C251.477325,141.006149 250.606964,142.218323 249.443741,142.661087 
	C247.917328,143.242096 245.409225,144.036591 244.624527,143.318130 
	C239.721222,138.828705 234.848419,139.423874 229.404022,142.111435 
	C227.930237,142.838943 225.654205,142.229187 223.815872,141.873764 
	C219.196976,140.980743 214.729645,138.955826 210.006790,141.940063 
	C205.437836,144.827042 203.970505,143.956680 203.077225,138.477936 
	C202.619492,135.670471 202.174973,132.860840 201.592270,129.227936 
	C198.970123,130.926376 197.366318,131.965195 195.625732,133.092621 
	C194.326904,132.106216 193.123093,131.191971 191.919281,130.277725 
	C191.489426,130.433762 191.059570,130.589813 190.629715,130.745850 
	C191.083847,133.363220 191.537979,135.980606 191.487823,139.125153 
	C191.293137,140.072327 191.098434,141.019485 190.440750,141.979309 
	C190.440750,141.979309 189.977768,141.991699 189.272400,142.067215 
	C186.522491,143.430130 183.836121,144.641220 181.567184,141.190918 
	C181.181381,140.604279 180.171066,140.125839 179.442062,140.115723 
	C174.059311,140.040924 168.674240,140.146683 163.290894,140.094498 
	C160.065475,140.063263 156.727417,140.336838 153.642288,139.612137 
	C147.999588,138.286667 146.521088,135.031631 150.522934,130.081528 
	C146.919205,130.531998 144.365555,130.323364 142.332825,131.253342 
	C140.288239,132.188721 138.761932,134.256943 137.008514,135.828766 
	C136.673569,135.567139 136.338608,135.305527 136.003662,135.043915 
	C136.003662,136.030975 136.003662,137.018021 135.471222,138.245041 
	C134.981628,138.831650 134.492035,139.418274 133.224792,140.004105 
	C130.719727,141.270462 128.214676,142.536819 124.609665,144.359222 
	C125.774376,140.938965 126.845520,138.722992 127.229660,136.393723 
	C127.585899,134.233658 127.274918,131.948364 127.135040,129.725922 
	C126.993622,127.479095 126.216957,125.158554 126.584206,123.018883 
	C127.202370,119.417351 125.181396,116.474312 121.533859,116.705635 
	C118.373528,116.906059 115.196381,117.626266 112.070572,117.427216 
	C104.929710,116.972481 97.815720,116.095604 90.516701,115.372971 
	C89.889801,120.386795 89.421951,124.128609 88.133583,127.947922 
	C86.756943,127.973091 85.380302,127.998253 83.482765,127.445496 
	C80.603477,127.444954 77.666168,127.814926 74.855690,127.374901 
	C66.167084,126.014534 62.758446,129.579849 64.645393,138.672302 
	C59.899937,140.293289 55.154476,141.914276 50.040333,143.661209 
	C51.176994,144.404816 52.369488,145.184937 53.561981,145.965073 
	C47.492191,145.003250 45.798439,149.298828 43.976173,153.471863 
	C43.788742,153.901093 43.369495,154.339722 42.946976,154.539124 
	C36.136505,157.753433 31.135370,162.258575 31.261618,170.540298 
	C31.286581,172.177994 30.547245,174.738235 31.298962,175.273224 
	C33.130161,176.576508 35.037907,179.851791 38.779568,176.797424 
	C39.510311,176.952408 40.241051,177.107391 41.069466,177.822571 
	C42.042320,177.609390 43.015179,177.396194 44.721310,176.930740 
	C45.750755,176.923950 46.780205,176.917160 48.749935,176.977112 
	C49.370136,176.877563 49.990337,176.778015 51.070759,176.231186 
	C51.894531,176.072449 52.718300,175.913712 53.883648,176.671814 
	C54.726448,177.099380 55.565788,177.888870 56.412598,177.896957 
	C62.891136,177.958908 69.375656,178.002655 75.849266,177.784180 
	C81.214767,177.603073 86.601013,177.137329 90.666565,171.998505 
	C91.111076,171.997574 91.555595,171.996658 92.530083,172.563889 
	C95.321877,173.614136 98.050491,174.940994 100.931847,175.599136 
	C102.395981,175.933563 104.135178,175.063736 105.880386,174.712036 
	C105.068932,172.658661 104.548874,171.342636 103.829063,169.521133 
	C105.517395,169.309357 106.757935,169.153763 108.291527,169.585098 
	C111.171036,170.650711 113.602760,172.066864 115.940636,174.351440 
	C117.380806,175.758774 119.248116,179.476517 123.349533,177.317001 
	C126.639496,175.584702 130.662415,175.244476 135.755310,173.925018 
	C137.393539,171.032028 140.635605,171.076141 144.717316,173.751923 
	C148.056717,175.941101 156.317047,174.073776 159.669312,170.985138 
	C160.114441,170.979340 160.559586,170.973541 161.273239,171.611481 
	C161.439392,173.282425 161.605530,174.953369 161.839325,177.304733 
	C164.411636,175.478256 166.626480,173.905609 168.379532,172.660858 
	C170.433517,173.451675 173.275574,175.067780 173.657791,174.613632 
	C178.285797,169.114746 184.560699,173.955292 188.837418,171.187332 
	C189.656006,175.942459 190.350845,179.978806 191.085922,184.825058 
	C191.118011,186.433990 191.150101,188.042908 191.142258,190.387955 
	C194.855957,194.305908 198.569672,198.223877 202.380615,202.244431 
	C206.724869,196.135712 208.110886,196.096283 213.604965,199.803741 
	C214.974426,200.727859 217.994293,200.724503 219.364899,199.811020 
	C222.174179,197.938705 224.062332,197.005157 226.404739,200.374191 
	C227.067032,201.326752 229.225601,201.514191 230.711136,201.553467 
	C232.839005,201.609711 235.108337,200.654816 237.086472,201.117783 
	C241.034286,202.041733 244.472473,201.660934 247.992081,199.609116 
	C251.005051,197.852631 253.023483,199.168716 253.717087,204.076523 
	C258.963196,201.323990 263.586151,199.054550 268.049225,196.505264 
	C271.366577,194.610397 274.259125,191.785217 277.751831,190.446335 
	C280.286560,189.474670 283.493530,190.256577 287.057709,190.256577 
	C286.536102,189.081436 285.651184,187.989532 285.667877,186.911575 
	C285.692261,185.340164 285.989471,182.685120 286.825012,182.398178 
	C290.940674,180.984726 290.051361,178.662125 288.936432,175.701523 
	C287.729156,172.495789 287.009705,169.106339 285.808014,164.840393 
	C285.825348,164.845505 284.405701,164.426620 282.980408,163.149094 
	C282.988159,161.432938 282.995911,159.716766 283.763916,157.990189 
	C284.741943,156.827240 285.938690,155.780869 286.637726,154.469254 
	C287.368134,153.098923 287.655029,151.482971 288.069916,149.956482 
	C288.445526,148.574539 289.309937,146.968292 288.913147,145.823318 
	C288.408539,144.367203 287.070770,142.859833 285.692261,142.130264 
	C283.857513,141.159241 281.624786,140.958679 279.585266,140.352402 
	C274.398407,138.810471 266.006989,142.613037 264.251740,147.000763 
	C263.505035,146.974228 262.758301,146.947708 261.926208,146.252090 
z"/>
<path fill="#F2FCF5" opacity="1.000000" stroke="none" 
	d="
M191.045715,184.015167 
	C190.350845,179.978806 189.656006,175.942459 188.837418,171.187332 
	C184.560699,173.955292 178.285797,169.114746 173.657791,174.613632 
	C173.275574,175.067780 170.433517,173.451675 168.379532,172.660858 
	C166.626480,173.905609 164.411636,175.478256 161.839325,177.304733 
	C161.605530,174.953369 161.439392,173.282425 161.276016,171.051819 
	C161.581192,170.291016 161.883591,170.089874 162.517639,169.940140 
	C164.270432,169.749084 165.691559,169.506622 167.541962,169.167969 
	C168.389755,168.111694 169.160278,167.154785 169.169022,166.190979 
	C169.221176,160.434738 169.097672,154.676895 168.958710,148.654053 
	C168.591156,147.925446 168.298019,147.462387 168.394409,146.999695 
	C170.125778,146.593155 171.559769,145.672623 172.788971,145.893204 
	C174.922592,146.276093 176.929565,147.364670 178.599686,148.237549 
	C176.598343,149.228195 173.671265,150.038300 173.592972,151.065567 
	C173.145386,156.937012 173.375580,162.860138 173.375580,168.869659 
	C176.382584,168.869659 178.458572,168.869659 180.525253,168.869659 
	C181.024292,164.371704 181.489929,160.174820 182.408875,155.986130 
	C185.577072,155.995529 188.291977,155.996719 191.073074,156.448364 
	C191.085190,159.932388 191.031082,162.965942 190.809265,166.089539 
	C190.769730,166.451080 190.897919,166.722565 191.126282,167.198608 
	C191.226471,167.403168 191.366943,167.836487 191.356567,168.198792 
	C196.196533,170.415207 197.429550,170.118347 198.571884,166.531342 
	C198.737289,165.812943 198.829239,165.402313 199.348541,164.992569 
	C200.916748,164.942169 202.057587,164.890884 203.161041,164.887604 
	C203.123642,164.935608 203.128296,164.813995 203.175842,165.075745 
	C203.490494,165.555923 203.757629,165.774323 204.339050,166.166489 
	C208.773453,167.287491 212.893570,168.234726 217.132721,169.324417 
	C217.500793,169.285049 217.749832,169.103210 218.255844,168.737457 
	C219.381622,167.705093 220.250427,166.856674 221.470673,166.012909 
	C223.871338,166.707230 225.920578,167.396866 228.380966,168.127686 
	C231.213608,168.506424 233.635101,168.843979 236.285812,169.430405 
	C240.548141,169.843658 243.346191,168.358307 244.012909,164.032806 
	C243.993668,164.013885 244.047241,164.019836 244.288010,163.829803 
	C244.581970,163.245850 244.635162,162.851898 244.719604,162.200287 
	C244.887558,161.625412 245.024292,161.308228 245.405365,160.747101 
	C245.467514,159.004623 245.285339,157.506073 244.976624,155.780777 
	C244.770752,155.219421 244.691437,154.884811 244.741821,154.167648 
	C244.922363,153.520645 244.973206,153.256180 245.461456,152.991577 
	C246.772736,152.956375 247.646622,152.921310 248.640106,153.278412 
	C248.759705,158.736481 248.759705,163.802368 248.759705,169.766571 
	C251.847488,169.017914 253.971069,168.503036 256.374573,167.689011 
	C256.680145,163.537720 256.705750,159.685577 256.705505,155.799164 
	C256.679688,155.764877 256.682678,155.679062 257.115540,155.772705 
	C258.718170,155.898468 259.887939,155.930573 261.168091,155.946899 
	C261.278534,155.931122 261.493774,155.872452 261.394958,156.265900 
	C261.401917,157.452469 261.507690,158.245605 261.495453,159.438065 
	C261.460022,161.211685 261.542633,162.585983 261.475525,164.346207 
	C261.325836,166.118942 261.325836,167.505737 261.325836,169.323517 
	C264.328217,169.161819 266.599091,169.039520 269.052124,168.880325 
	C269.319550,168.755447 269.493591,168.625671 269.475159,168.586502 
	C269.377716,168.379471 269.231781,168.195221 269.027863,167.735367 
	C268.878082,167.298187 268.803131,167.128723 268.821411,166.717224 
	C268.977051,166.313873 269.039490,166.152603 269.372253,165.690262 
	C269.760803,163.473587 270.095276,161.541275 269.948547,159.646194 
	C269.703156,156.476532 271.278320,155.674179 274.129913,156.353851 
	C274.223480,157.459259 274.200012,158.207077 273.859375,159.213959 
	C273.395935,161.888489 272.981567,164.333450 273.242432,166.704117 
	C273.339447,167.585632 275.017456,168.293152 276.313538,169.118256 
	C277.107452,169.163208 277.562317,169.169891 278.268860,169.430573 
	C283.625153,170.636826 282.154297,166.416641 282.986053,164.007736 
	C284.405701,164.426620 285.825348,164.845505 285.808014,164.840393 
	C287.009705,169.106339 287.729156,172.495789 288.936432,175.701523 
	C290.051361,178.662125 290.940674,180.984726 286.825012,182.398178 
	C285.989471,182.685120 285.692261,185.340164 285.667877,186.911575 
	C285.651184,187.989532 286.536102,189.081436 287.057709,190.256577 
	C283.493530,190.256577 280.286560,189.474670 277.751831,190.446335 
	C274.259125,191.785217 271.366577,194.610397 268.049225,196.505264 
	C263.586151,199.054550 258.963196,201.323990 253.717087,204.076523 
	C253.023483,199.168716 251.005051,197.852631 247.992081,199.609116 
	C244.472473,201.660934 241.034286,202.041733 237.086472,201.117783 
	C235.108337,200.654816 232.839005,201.609711 230.711136,201.553467 
	C229.225601,201.514191 227.067032,201.326752 226.404739,200.374191 
	C224.062332,197.005157 222.174179,197.938705 219.364899,199.811020 
	C217.994293,200.724503 214.974426,200.727859 213.604965,199.803741 
	C208.110886,196.096283 206.724869,196.135712 202.380615,202.244431 
	C198.569672,198.223877 194.855957,194.305908 191.548920,190.093109 
	C197.581528,190.964035 193.155792,183.551025 198.122955,183.533081 
	C198.420334,184.724854 198.947678,186.134201 199.088501,187.581146 
	C199.263931,189.383575 198.882767,191.260925 199.207611,193.019928 
	C199.390182,194.008591 200.511444,194.823914 201.209808,195.717331 
	C201.884659,194.815628 203.094345,193.938889 203.137802,193.007721 
	C203.291336,189.718842 203.045502,186.411346 202.912354,182.874329 
	C202.740509,182.326706 202.516495,182.109375 201.983307,181.780884 
	C201.181610,181.031143 200.598145,180.486313 199.971573,179.756012 
	C199.833038,179.323547 199.671051,179.133224 199.331696,178.602783 
	C197.879593,178.170914 195.991425,177.560959 195.304703,178.214127 
	C193.593735,179.841537 192.429459,182.043732 191.045715,184.015167 
M226.060028,187.843018 
	C225.970612,188.212387 225.881195,188.581757 225.125916,188.979599 
	C224.459564,188.975204 223.793213,188.970795 222.854050,188.509995 
	C222.568405,188.305923 222.282745,188.101852 221.505753,187.397507 
	C220.342789,187.258575 219.179825,187.119659 217.799759,186.335632 
	C217.489517,185.244400 217.179276,184.153152 217.452744,182.672638 
	C217.817535,180.561920 219.178238,177.296616 218.343491,176.576569 
	C216.505264,174.990997 214.380508,176.127472 213.640488,179.575500 
	C212.031738,180.381210 210.241745,180.960556 208.868317,182.060181 
	C207.643585,183.040771 206.177383,184.558151 206.103409,185.909058 
	C206.024612,187.347931 207.164322,189.159241 208.291168,190.291168 
	C210.286072,192.295074 212.673874,193.907852 214.833450,195.633316 
	C217.077652,194.832886 219.893997,193.828400 223.512604,192.952560 
	C224.318527,192.972717 225.124466,192.992859 226.253632,193.639755 
	C230.598053,197.666290 233.889923,197.885391 237.066147,193.863266 
	C238.097900,192.556747 238.910873,189.364822 238.240372,188.743073 
	C236.102844,186.761047 235.130157,188.856995 234.091339,190.740341 
	C233.674438,191.496170 231.994324,191.555206 230.889160,191.931381 
	C230.724426,190.719482 230.097015,189.310287 230.508957,188.344269 
	C231.057022,187.059021 232.539505,186.208054 233.394547,185.009308 
	C234.618530,183.293304 235.832703,181.512695 236.636459,179.586670 
	C236.907303,178.937683 235.914703,177.761444 235.499557,176.826187 
	C234.639023,177.329346 233.565720,177.651688 232.956604,178.368484 
	C230.863953,180.831024 228.933823,183.431656 226.484055,186.275406 
	C226.368393,186.609650 226.252731,186.943893 226.060028,187.843018 
M275.843292,176.441986 
	C271.848114,176.436508 267.844238,176.263016 263.860016,176.469208 
	C259.153717,176.712738 255.477203,181.037247 257.137695,184.820709 
	C258.033569,186.862000 260.719666,188.117569 262.770966,189.875793 
	C262.338806,191.375687 261.796417,193.258133 261.196991,195.338608 
	C266.679169,196.730469 266.302521,191.920181 267.448181,189.467194 
	C268.747192,186.685822 268.997955,183.414902 269.704437,180.356812 
	C269.925354,180.361786 270.146271,180.366776 270.367188,180.371750 
	C270.663239,182.196808 270.959320,184.021851 271.292175,186.073715 
	C275.260345,185.687210 280.014130,188.281464 281.514038,182.455017 
	C282.453766,178.804611 280.334137,176.834991 275.843292,176.441986 
M241.026978,178.737305 
	C241.650345,183.055008 242.140884,187.398514 242.971237,191.676025 
	C243.250687,193.115524 244.393677,194.387390 245.141983,195.735886 
	C245.740601,194.397964 246.588608,193.112534 246.883652,191.710709 
	C247.424606,189.140533 247.639297,186.501694 247.990021,183.891479 
	C248.665680,183.914200 249.341324,183.936935 250.016983,183.959656 
	C250.382217,185.118134 250.574066,186.375809 251.163498,187.405975 
	C251.707214,188.356232 252.677704,189.062302 253.460205,189.875916 
	C254.024033,188.862518 255.011993,187.876480 255.079483,186.831039 
	C255.399689,181.869888 252.234741,179.820969 245.835800,180.647003 
	C244.383392,175.894135 244.383392,175.894135 241.026978,178.737305 
z"/>
<path fill="#FBF7F6" opacity="1.000000" stroke="none" 
	d="
M88.954102,127.870415 
	C89.421951,124.128609 89.889801,120.386795 90.516701,115.372971 
	C97.815720,116.095604 104.929710,116.972481 112.070572,117.427216 
	C115.196381,117.626266 118.373528,116.906059 121.533859,116.705635 
	C125.181396,116.474312 127.202370,119.417351 126.584206,123.018883 
	C126.216957,125.158554 126.993622,127.479095 127.135040,129.725922 
	C127.274918,131.948364 127.585899,134.233658 127.229660,136.393723 
	C126.845520,138.722992 125.774376,140.938965 124.609665,144.359222 
	C128.214676,142.536819 130.719727,141.270462 133.644516,140.452896 
	C134.181137,141.488602 134.298035,142.075531 134.381104,142.899185 
	C134.254974,143.448044 134.100494,143.725586 133.662994,143.968414 
	C133.442108,143.968262 133.001221,143.997559 132.656158,144.035095 
	C130.531967,145.060776 128.752823,146.048950 126.509079,147.031677 
	C121.970726,147.022751 117.894547,146.932892 113.824104,147.047348 
	C111.277863,147.118958 108.769531,147.532257 109.045357,151.059845 
	C109.002975,151.025665 109.105850,151.061340 108.840134,151.186249 
	C108.447517,151.666763 108.320602,152.022369 108.154190,152.556320 
	C108.114693,152.734650 107.846504,152.982681 107.485840,152.987000 
	C105.728958,153.352982 104.332733,153.714630 102.604263,153.869431 
	C101.758263,151.618057 101.244499,149.573532 100.760063,147.374359 
	C100.789391,147.219696 101.011314,146.996399 101.327644,146.960236 
	C101.821709,145.952026 101.999443,144.979996 102.132004,143.716644 
	C102.005745,143.040802 101.924675,142.656250 101.860146,141.952301 
	C101.225449,141.505112 100.574211,141.377335 99.600082,141.204651 
	C98.868950,141.012985 98.460693,140.866226 97.921600,140.353302 
	C93.780807,139.752548 89.766006,139.328400 85.764618,139.430328 
	C84.878204,139.452896 84.039131,141.333755 83.094421,142.543625 
	C82.846703,142.959732 82.627213,143.109833 81.967499,143.154663 
	C80.409744,145.409302 79.236603,147.687897 77.693497,149.911819 
	C76.908829,149.058304 76.083084,148.226898 76.143379,147.465683 
	C76.708069,140.337036 76.664253,140.261673 70.003471,141.613464 
	C72.135773,139.964127 74.146545,138.434341 76.399307,137.469620 
	C80.480576,135.721832 84.713074,134.328674 88.850937,132.707092 
	C89.059898,132.625198 88.971672,131.784988 89.329628,131.100784 
	C91.428696,130.280914 93.219955,129.658127 95.473572,129.051178 
	C97.596405,128.972702 99.255951,128.819687 100.917488,128.793732 
	C110.443184,128.644897 111.786880,130.238327 109.972511,139.372437 
	C109.886795,139.803970 110.190399,140.312836 110.707588,142.312515 
	C113.746872,138.670731 116.589478,135.999420 118.530258,132.783813 
	C122.387810,126.392395 119.572678,121.672302 112.101028,122.500618 
	C106.268173,123.147255 100.592491,125.211540 94.499786,126.677101 
	C93.238914,126.851631 92.325211,126.994934 91.125427,127.159798 
	C90.548286,127.414047 90.257217,127.646736 89.963882,127.926331 
	C89.961609,127.973236 89.868622,127.959969 89.638992,127.947815 
	C89.409355,127.935661 88.954102,127.870415 88.954102,127.870415 
M121.594208,134.890991 
	C122.631470,134.709915 123.668739,134.528854 124.706001,134.347794 
	C124.473457,133.651489 124.240913,132.955170 124.008369,132.258865 
	C123.106010,132.928040 122.203659,133.597214 121.594208,134.890991 
z"/>
<path fill="#F8FDFA" opacity="1.000000" stroke="none" 
	d="
M248.520508,152.886246 
	C247.646622,152.921310 246.772736,152.956375 245.193726,152.990936 
	C244.310898,153.004684 244.133163,153.018936 243.978439,153.017578 
	C244.001434,153.001999 243.964157,153.043900 243.967010,152.716858 
	C243.540375,151.973648 243.110901,151.557465 242.446335,151.009949 
	C241.814209,150.515427 241.417160,150.152267 240.914307,149.581635 
	C240.590454,149.119308 240.313812,148.997879 239.696640,148.974747 
	C238.915787,148.694687 238.416870,148.449753 237.727600,147.887848 
	C235.691406,147.686340 233.845581,147.801804 231.666382,147.998062 
	C230.013672,148.438324 228.694366,148.797760 227.079483,149.194550 
	C226.538116,149.527008 226.292297,149.822113 225.943329,150.333771 
	C225.622650,150.805573 225.348175,150.958954 224.626099,151.000946 
	C223.193726,150.990936 222.152023,150.990417 220.995468,150.747803 
	C220.558044,150.081451 220.235474,149.657166 219.768433,148.929611 
	C219.205658,148.512955 218.787354,148.399567 218.127350,148.334015 
	C217.547974,148.336761 217.255951,148.196579 216.942566,147.600266 
	C212.456039,146.244629 208.233765,146.190994 204.336166,149.113586 
	C202.727539,150.319809 200.763992,151.052658 198.857117,151.723083 
	C198.665802,150.858276 198.579193,150.271179 198.554871,149.518585 
	C198.617157,149.353119 198.540314,149.005447 198.689240,148.676392 
	C198.776321,147.385269 198.714478,146.423187 198.705627,145.072052 
	C198.758591,142.901733 198.758591,141.120499 198.758591,138.982666 
	C196.206284,138.837555 194.099182,138.717773 191.992096,138.597977 
	C191.537979,135.980606 191.083847,133.363220 190.629715,130.745850 
	C191.059570,130.589813 191.489426,130.433762 191.919281,130.277725 
	C193.123093,131.191971 194.326904,132.106216 195.625732,133.092621 
	C197.366318,131.965195 198.970123,130.926376 201.592270,129.227936 
	C202.174973,132.860840 202.619492,135.670471 203.077225,138.477936 
	C203.970505,143.956680 205.437836,144.827042 210.006790,141.940063 
	C214.729645,138.955826 219.196976,140.980743 223.815872,141.873764 
	C225.654205,142.229187 227.930237,142.838943 229.404022,142.111435 
	C234.848419,139.423874 239.721222,138.828705 244.624527,143.318130 
	C245.409225,144.036591 247.917328,143.242096 249.443741,142.661087 
	C250.606964,142.218323 251.477325,141.006149 252.477966,140.136246 
	C253.128754,141.362946 253.847595,142.559769 254.404434,143.827728 
	C254.730469,144.570160 254.798157,145.426071 254.617340,146.634628 
	C252.824631,147.518738 251.396637,147.999146 249.639801,148.624252 
	C249.047470,150.141388 248.783981,151.513809 248.520508,152.886246 
z"/>
<path fill="#FCECEC" opacity="1.000000" stroke="none" 
	d="
M88.543839,127.909164 
	C88.954102,127.870415 89.409355,127.935661 89.478043,128.241699 
	C88.063316,129.128326 86.579903,129.708908 85.096489,130.289505 
	C85.230347,130.697876 85.364204,131.106247 85.498062,131.514618 
	C86.672653,131.442368 87.847237,131.370102 89.021820,131.297852 
	C88.971672,131.784988 89.059898,132.625198 88.850937,132.707092 
	C84.713074,134.328674 80.480576,135.721832 76.399307,137.469620 
	C74.146545,138.434341 72.135773,139.964127 70.006851,141.618835 
	C69.997787,141.998474 69.987389,141.991928 69.642746,142.048920 
	C67.208214,143.407562 65.118309,144.709198 63.015572,146.014160 
	C63.002728,146.017487 63.009430,146.043198 62.739830,146.151642 
	C61.980766,146.841156 61.491302,147.422211 60.740112,148.109924 
	C59.988461,148.498383 59.498535,148.780182 58.733459,149.281799 
	C58.301193,150.662689 58.144073,151.823776 57.993477,152.992432 
	C58.000000,153.000000 57.984898,152.987625 57.638977,153.025970 
	C55.162125,154.675156 53.031189,156.285995 50.943539,157.583923 
	C51.157024,156.671997 51.327221,156.072968 51.519577,155.425919 
	C51.541733,155.377884 51.644699,155.353546 51.919456,155.208466 
	C53.946121,152.976257 55.698032,150.889145 57.449944,148.802048 
	C57.130760,148.451965 56.811573,148.101883 56.492390,147.751801 
	C52.274033,148.611862 49.723682,152.051926 46.498070,155.051773 
	C42.745872,159.226334 39.018063,163.042496 35.882946,167.295547 
	C33.209785,170.921921 33.644764,174.489059 38.029125,176.850128 
	C35.037907,179.851791 33.130161,176.576508 31.298962,175.273224 
	C30.547245,174.738235 31.286581,172.177994 31.261618,170.540298 
	C31.135370,162.258575 36.136505,157.753433 42.946976,154.539124 
	C43.369495,154.339722 43.788742,153.901093 43.976173,153.471863 
	C45.798439,149.298828 47.492191,145.003250 53.561981,145.965073 
	C52.369488,145.184937 51.176994,144.404816 50.040333,143.661209 
	C55.154476,141.914276 59.899937,140.293289 65.218918,138.338547 
	C67.909836,137.268875 70.298882,136.932419 72.088959,135.715149 
	C76.002548,133.053925 81.662857,133.074112 84.003662,128.023407 
	C85.380302,127.998253 86.756943,127.973091 88.543839,127.909164 
z"/>
<path fill="#F8FDFA" opacity="1.000000" stroke="none" 
	d="
M178.989655,148.157318 
	C176.929565,147.364670 174.922592,146.276093 172.788971,145.893204 
	C171.559769,145.672623 170.125778,146.593155 168.069855,146.988525 
	C166.903168,147.350677 166.450577,147.724335 165.623108,148.187637 
	C164.222687,148.320114 163.197144,148.362961 162.070496,147.985321 
	C156.305984,143.646912 151.479645,146.596039 146.406128,150.073303 
	C146.156693,147.900742 145.976425,146.330643 145.806122,144.749390 
	C145.816116,144.738251 145.774246,144.731903 146.158508,144.749725 
	C148.916183,141.047134 148.370987,138.240494 144.574341,137.515793 
	C141.847916,136.995392 138.869598,137.794571 136.003662,138.005081 
	C136.003662,137.018021 136.003662,136.030975 136.003662,135.043915 
	C136.338608,135.305527 136.673569,135.567139 137.008514,135.828766 
	C138.761932,134.256943 140.288239,132.188721 142.332825,131.253342 
	C144.365555,130.323364 146.919205,130.531998 150.522934,130.081528 
	C146.521088,135.031631 147.999588,138.286667 153.642288,139.612137 
	C156.727417,140.336838 160.065475,140.063263 163.290894,140.094498 
	C168.674240,140.146683 174.059311,140.040924 179.442062,140.115723 
	C180.171066,140.125839 181.181381,140.604279 181.567184,141.190918 
	C183.836121,144.641220 186.522491,143.430130 189.641479,142.370392 
	C190.356369,143.448181 190.702179,144.222763 191.135925,145.124542 
	C191.223877,145.251724 191.259766,145.558884 191.192429,146.002304 
	C191.118042,147.336975 191.111008,148.228226 191.051056,149.075714 
	C190.998138,149.031952 191.121109,149.092865 190.718521,149.075439 
	C189.780090,149.091125 189.244247,149.124237 188.393860,148.967316 
	C186.404724,148.535736 184.730118,148.294174 182.614731,148.024261 
	C181.307861,148.156219 180.441788,148.316528 179.409866,148.432404 
	C179.244034,148.387970 178.989655,148.157318 178.989655,148.157318 
z"/>
<path fill="#F2FCF5" opacity="1.000000" stroke="none" 
	d="
M159.001831,170.971786 
	C156.317047,174.073776 148.056717,175.941101 144.717316,173.751923 
	C140.635605,171.076141 137.393539,171.032028 135.755310,173.925018 
	C130.662415,175.244476 126.639496,175.584702 123.349533,177.317001 
	C119.248116,179.476517 117.380806,175.758774 115.940636,174.351440 
	C113.602760,172.066864 111.171036,170.650711 108.095245,168.908859 
	C105.845436,167.456177 103.791916,166.679749 101.821579,165.621033 
	C102.266373,164.885864 102.627975,164.432983 103.210754,164.243591 
	C104.812828,164.267487 106.193733,164.027939 107.778999,164.048004 
	C110.636536,168.994675 114.746094,169.906677 120.022491,168.869812 
	C121.195259,168.988251 121.979126,169.039139 123.205673,169.117554 
	C125.575142,168.772430 127.501930,168.399780 129.749512,168.028946 
	C131.291611,168.378860 132.512924,168.726959 134.162262,169.112061 
	C135.730591,169.220490 136.870895,169.291870 138.107269,169.491501 
	C138.203369,169.619751 138.651672,169.673203 138.651672,169.673203 
	C138.651672,169.673203 138.988541,169.356186 139.311981,169.240845 
	C140.108322,168.416946 140.581223,167.708405 141.346191,166.960983 
	C141.950836,166.602051 142.263412,166.281967 142.575974,165.961899 
	C142.074341,165.640900 141.572708,165.319916 140.987656,164.575714 
	C140.962296,162.432480 141.020355,160.712463 141.235931,158.903580 
	C141.288147,158.545593 141.182877,158.276474 141.002594,157.675659 
	C140.995132,156.899094 141.062653,156.454208 141.501648,156.001434 
	C143.104706,155.824890 144.336273,155.656235 145.436569,155.505539 
	C145.986847,157.906189 146.453842,159.943604 147.031403,162.145889 
	C147.141937,162.310776 147.113770,162.706802 147.075500,163.109695 
	C147.549789,168.106689 148.769379,169.390366 152.503616,168.858154 
	C154.957367,168.950577 156.979080,168.996338 158.999252,169.363892 
	C158.999100,170.114395 159.000458,170.543091 159.001831,170.971786 
z"/>
<path fill="#DF434B" opacity="1.000000" stroke="none" 
	d="
M38.404346,176.823776 
	C33.644764,174.489059 33.209785,170.921921 35.882946,167.295547 
	C39.018063,163.042496 42.745872,159.226334 46.840927,155.061066 
	C48.871677,154.929352 50.582043,152.147476 51.644699,155.353546 
	C51.644699,155.353546 51.541733,155.377884 51.145679,155.429718 
	C50.229179,157.035675 49.708729,158.589783 49.153404,160.129456 
	C49.118530,160.115005 49.182663,160.077530 48.881802,160.267273 
	C48.728485,161.954361 48.876030,163.451691 49.158173,165.210983 
	C49.909527,166.232315 50.526291,166.991669 51.293980,168.091415 
	C54.302479,168.697067 57.160049,168.962326 60.381416,169.173340 
	C61.478264,169.059509 62.211308,168.999893 63.049568,169.196594 
	C62.789055,170.349930 62.423336,171.246994 61.954830,172.323486 
	C61.852043,172.502945 61.702850,172.888702 61.407722,172.886993 
	C60.751400,173.034012 60.390205,173.182739 59.696251,173.313324 
	C58.166084,173.830215 56.968674,174.365204 55.507092,174.885834 
	C54.675968,175.165955 54.109020,175.460464 53.542068,175.754959 
	C52.718300,175.913712 51.894531,176.072449 50.595604,176.247345 
	C49.350182,176.479126 48.579914,176.694748 47.809650,176.910370 
	C46.780205,176.917160 45.750755,176.923950 43.981323,176.973846 
	C42.484821,177.098755 41.728306,177.180573 40.971794,177.262390 
	C40.241051,177.107391 39.510311,176.952408 38.404346,176.823776 
z"/>
<path fill="#FBF7F6" opacity="1.000000" stroke="none" 
	d="
M60.029011,173.331451 
	C60.390205,173.182739 60.751400,173.034012 61.646126,172.883606 
	C62.505913,172.812469 62.762100,172.639374 63.200645,172.219147 
	C63.831055,172.003159 64.209038,171.930649 64.863998,171.842728 
	C65.421478,171.603348 65.701965,171.379349 66.262177,170.969025 
	C68.184753,170.121185 69.827599,169.459686 71.868721,168.834854 
	C73.181854,167.578278 74.096725,166.285049 75.386658,164.915314 
	C76.867119,162.190048 77.972527,159.541290 79.473686,156.912170 
	C84.163315,158.101303 88.457199,159.270782 93.381241,160.611908 
	C91.737343,161.815460 90.848969,162.465866 89.586327,163.176208 
	C88.476616,163.098236 87.741165,162.960327 86.821449,162.596741 
	C86.081223,162.255386 85.525261,162.139709 84.982010,162.010300 
	C84.994713,161.996567 84.986458,162.032089 84.816956,161.782593 
	C84.267517,161.444870 83.887581,161.356644 83.171463,161.253357 
	C81.597633,163.061111 80.359970,164.883926 79.065872,167.067139 
	C78.441788,168.747864 77.874161,170.068192 77.306534,171.388504 
	C77.641510,171.612503 77.976486,171.836517 78.311462,172.060516 
	C79.216515,171.020355 80.121567,169.980179 81.443893,168.956390 
	C82.696175,168.914047 83.531181,168.855331 84.539200,168.773529 
	C84.712219,168.750458 85.021500,168.912338 85.013443,169.179184 
	C85.007195,169.623566 85.009010,169.801117 85.039581,170.265472 
	C85.488739,170.869553 85.909134,171.186829 86.329529,171.504120 
	C86.231339,171.003815 86.133148,170.503494 86.035309,169.792633 
	C86.035660,169.582062 86.033859,169.160934 86.432571,169.167389 
	C87.883781,169.279373 88.936272,169.384888 89.992584,169.802780 
	C89.997520,170.742157 89.998650,171.369156 89.999786,171.996155 
	C86.601013,177.137329 81.214767,177.603073 75.849266,177.784180 
	C69.375656,178.002655 62.891136,177.958908 56.412598,177.896957 
	C55.565788,177.888870 54.726448,177.099380 53.712860,176.213379 
	C54.109020,175.460464 54.675968,175.165955 55.859032,174.944809 
	C58.144211,175.476639 60.167110,176.680618 60.029011,173.331451 
z"/>
<path fill="#F8FDFA" opacity="1.000000" stroke="none" 
	d="
M264.999023,146.994293 
	C266.006989,142.613037 274.398407,138.810471 279.585266,140.352402 
	C281.624786,140.958679 283.857513,141.159241 285.692261,142.130264 
	C287.070770,142.859833 288.408539,144.367203 288.913147,145.823318 
	C289.309937,146.968292 288.445526,148.574539 288.069916,149.956482 
	C287.655029,151.482971 287.368134,153.098923 286.637726,154.469254 
	C285.938690,155.780869 284.741943,156.827240 283.372467,157.559418 
	C282.978271,156.143753 283.260193,155.043884 282.917816,154.196152 
	C281.998505,151.919724 281.152222,148.190567 279.660980,147.865707 
	C276.589722,147.196640 273.117340,148.369049 269.480865,148.846985 
	C267.767487,148.271591 266.383270,147.632950 264.999023,146.994293 
z"/>
<path fill="#FBF7F6" opacity="1.000000" stroke="none" 
	d="
M83.743210,127.734451 
	C81.662857,133.074112 76.002548,133.053925 72.088959,135.715149 
	C70.298882,136.932419 67.909836,137.268875 65.403625,138.009018 
	C62.758446,129.579849 66.167084,126.014534 74.855690,127.374901 
	C77.666168,127.814926 80.603477,127.444954 83.743210,127.734451 
z"/>
<path fill="#56AC69" opacity="1.000000" stroke="none" 
	d="
M200.014694,179.941467 
	C200.598145,180.486313 201.181610,181.031143 202.011322,182.021942 
	C202.387131,182.791809 202.618301,183.006149 202.951096,183.110901 
	C203.045502,186.411346 203.291336,189.718842 203.137802,193.007721 
	C203.094345,193.938889 201.884659,194.815628 201.209808,195.717331 
	C200.511444,194.823914 199.390182,194.008591 199.207611,193.019928 
	C198.882767,191.260925 199.263931,189.383575 199.088501,187.581146 
	C198.947678,186.134201 198.420334,184.724854 198.122955,183.533081 
	C193.155792,183.551025 197.581528,190.964035 191.568878,189.725052 
	C191.150101,188.042908 191.118011,186.433990 191.065826,184.420120 
	C192.429459,182.043732 193.593735,179.841537 195.304703,178.214127 
	C195.991425,177.560959 197.879593,178.170914 199.276733,178.823761 
	C199.426865,179.789688 199.654251,179.956329 200.014694,179.941467 
z"/>
<path fill="#FBF7F6" opacity="1.000000" stroke="none" 
	d="
M101.738388,165.903320 
	C103.791916,166.679749 105.845436,167.456177 107.948715,168.615387 
	C106.757935,169.153763 105.517395,169.309357 103.829063,169.521133 
	C104.548874,171.342636 105.068932,172.658661 105.880386,174.712036 
	C104.135178,175.063736 102.395981,175.933563 100.931847,175.599136 
	C98.050491,174.940994 95.321877,173.614136 92.265091,171.965073 
	C92.003677,170.738617 92.007256,170.110992 92.396606,169.379364 
	C94.364052,169.084869 95.945732,168.894363 97.888123,168.798355 
	C98.495049,168.920410 98.741264,168.947968 99.181290,169.231537 
	C100.077164,169.457123 100.779236,169.426712 101.481323,169.396301 
	C101.286148,168.522537 101.090981,167.648788 100.958847,166.565430 
	C101.183456,166.082642 101.422287,165.931808 101.738388,165.903320 
z"/>
<path fill="#D2F6DB" opacity="1.000000" stroke="none" 
	d="
M269.809998,148.783737 
	C273.117340,148.369049 276.589722,147.196640 279.660980,147.865707 
	C281.152222,148.190567 281.998505,151.919724 282.917816,154.196152 
	C283.260193,155.043884 282.978271,156.143753 282.992340,157.564636 
	C282.995911,159.716766 282.988159,161.432938 282.983215,163.578415 
	C282.154297,166.416641 283.625153,170.636826 278.448914,169.056061 
	C279.347046,167.584305 281.143707,166.746155 281.148987,165.896881 
	C281.178009,161.231750 280.768433,156.563889 280.434540,151.566376 
	C279.588837,150.482040 278.818054,149.728287 277.758911,148.739624 
	C275.024902,148.722565 272.579224,148.940430 270.052368,149.064941 
	C269.971130,148.971588 269.809998,148.783737 269.809998,148.783737 
z"/>
<path fill="#56AC69" opacity="1.000000" stroke="none" 
	d="
M191.259766,145.558884 
	C191.259766,145.558884 191.223877,145.251724 191.182129,144.744476 
	C191.061493,143.480377 190.982605,142.723511 190.903732,141.966660 
	C191.098434,141.019485 191.293137,140.072327 191.739960,138.861572 
	C194.099182,138.717773 196.206284,138.837555 198.758591,138.982666 
	C198.758591,141.120499 198.758591,142.901733 198.306671,145.161072 
	C195.656418,145.612396 193.458084,145.585648 191.259766,145.558884 
z"/>
<path fill="#D2F6DB" opacity="1.000000" stroke="none" 
	d="
M264.625366,146.997528 
	C266.383270,147.632950 267.767487,148.271591 269.480865,148.846985 
	C269.809998,148.783737 269.971130,148.971588 269.906403,149.301208 
	C269.494354,150.059479 269.147064,150.488144 268.428284,150.882202 
	C262.358154,147.532288 255.913940,149.911346 249.968643,148.479553 
	C251.396637,147.999146 252.824631,147.518738 254.622040,147.034363 
	C255.439438,147.034134 255.887405,147.037888 257.088074,147.040833 
	C259.231049,147.000412 260.621338,146.960800 262.011597,146.921173 
	C262.758301,146.947708 263.505035,146.974228 264.625366,146.997528 
z"/>
<path fill="#E8FCEE" opacity="1.000000" stroke="none" 
	d="
M135.737442,138.125061 
	C138.869598,137.794571 141.847916,136.995392 144.574341,137.515793 
	C148.370987,138.240494 148.916183,141.047134 146.131226,144.358063 
	C146.446976,139.799484 144.223022,138.409134 140.694748,139.309814 
	C138.461700,139.879837 136.498917,141.508545 134.414917,142.662445 
	C134.298035,142.075531 134.181137,141.488602 134.033340,140.453278 
	C134.492035,139.418274 134.981628,138.831650 135.737442,138.125061 
z"/>
<path fill="#F8FDFA" opacity="1.000000" stroke="none" 
	d="
M261.968903,146.586639 
	C260.621338,146.960800 259.231049,147.000412 257.423950,147.035980 
	C258.262268,144.346207 259.637878,142.420517 261.968903,146.586639 
z"/>
<path fill="#E8FCEE" opacity="1.000000" stroke="none" 
	d="
M159.335571,170.978455 
	C159.000458,170.543091 158.999100,170.114395 159.210846,169.160553 
	C160.339050,168.688324 161.254150,168.741241 162.144272,169.068237 
	C162.141525,169.524445 162.163742,169.706573 162.185974,169.888733 
	C161.883591,170.089874 161.581192,170.291016 161.141754,170.729950 
	C160.559586,170.973541 160.114441,170.979340 159.335571,170.978455 
z"/>
<path fill="#F2FCF5" opacity="1.000000" stroke="none" 
	d="
M92.010841,169.483337 
	C92.007256,170.110992 92.003677,170.738617 92.000099,171.681000 
	C91.555595,171.996658 91.111076,171.997574 90.333176,171.997330 
	C89.998650,171.369156 89.997520,170.742157 90.324844,169.705551 
	C91.105812,169.358414 91.558327,169.420883 92.010841,169.483337 
z"/>
<path fill="#FCECEC" opacity="1.000000" stroke="none" 
	d="
M41.020630,177.542480 
	C41.728306,177.180573 42.484821,177.098755 43.614685,177.099976 
	C43.015179,177.396194 42.042320,177.609390 41.020630,177.542480 
z"/>
<path fill="#D6F6DE" opacity="1.000000" stroke="none" 
	d="
M190.672241,141.972992 
	C190.982605,142.723511 191.061493,143.480377 191.094177,144.617294 
	C190.702179,144.222763 190.356369,143.448181 189.994171,142.332642 
	C189.977768,141.991699 190.440750,141.979309 190.672241,141.972992 
z"/>
<path fill="#FCECEC" opacity="1.000000" stroke="none" 
	d="
M48.279793,176.943741 
	C48.579914,176.694748 49.350182,176.479126 50.365494,176.470978 
	C49.990337,176.778015 49.370136,176.877563 48.279793,176.943741 
z"/>
<path fill="#3DAE56" opacity="1.000000" stroke="none" 
	d="
M162.169235,168.794159 
	C161.254150,168.741241 160.339050,168.688324 159.212372,168.838745 
	C156.979080,168.996338 154.957367,168.950577 152.314301,168.596100 
	C150.166550,166.427185 148.640152,164.566986 147.113770,162.706802 
	C147.113770,162.706802 147.141937,162.310776 147.080643,161.718338 
	C147.142426,149.916458 151.672043,145.989746 160.775818,149.498657 
	C161.091644,149.932037 161.335266,150.129807 161.578903,150.327560 
	C161.732681,149.892792 161.886459,149.458008 162.124817,148.879883 
	C162.209396,148.736526 162.171616,148.405792 162.171616,148.405792 
	C163.197144,148.362961 164.222687,148.320114 165.832916,148.439835 
	C167.289444,148.708130 168.161285,148.813873 169.033112,148.919601 
	C169.097672,154.676895 169.221176,160.434738 169.169022,166.190979 
	C169.160278,167.154785 168.389755,168.111694 167.142776,169.048309 
	C164.932632,168.947952 163.550934,168.871063 162.169235,168.794159 
M156.208191,163.304367 
	C157.986542,162.702850 160.998550,162.447281 161.284576,161.427261 
	C161.867020,159.350281 161.287109,156.747604 160.501724,154.613388 
	C160.277710,154.004593 156.681915,153.690674 156.381195,154.225296 
	C155.277954,156.186600 154.791275,158.538589 154.349731,160.797684 
	C154.237625,161.371216 155.150818,162.145142 156.208191,163.304367 
z"/>
<path fill="#3DAE56" opacity="1.000000" stroke="none" 
	d="
M249.639801,148.624268 
	C255.913940,149.911346 262.358154,147.532288 268.856201,150.906982 
	C272.452789,150.302414 275.250000,149.638474 278.047241,148.974518 
	C278.818054,149.728287 279.588837,150.482040 280.025146,151.625000 
	C277.737610,152.700516 275.784515,153.386826 273.469788,153.998657 
	C272.379211,153.814774 271.650238,153.705399 270.801605,153.498123 
	C270.339417,153.351364 270.117218,153.506775 269.844177,153.959671 
	C269.673065,154.052902 269.287048,154.106903 268.951904,154.286407 
	C268.656097,156.633560 268.695465,158.801208 268.791168,161.385590 
	C268.932312,163.198669 269.017090,164.595001 269.101868,165.991348 
	C269.039490,166.152603 268.977051,166.313873 268.463623,166.784271 
	C264.056213,169.774139 263.223602,166.086655 261.625244,163.960266 
	C261.542633,162.585983 261.460022,161.211685 261.755402,159.339111 
	C261.920197,157.851379 261.707001,156.861908 261.493774,155.872452 
	C261.493774,155.872452 261.278534,155.931122 261.199799,155.618011 
	C259.396515,152.522095 257.933136,152.837753 256.682678,155.679062 
	C256.682678,155.679062 256.679688,155.764877 256.435974,156.122665 
	C256.159729,160.316360 256.127197,164.152252 256.094635,167.988159 
	C253.971069,168.503036 251.847488,169.017914 248.759705,169.766571 
	C248.759705,163.802368 248.759705,158.736481 248.640106,153.278412 
	C248.783981,151.513809 249.047470,150.141388 249.639801,148.624268 
z"/>
<path fill="#3DAE56" opacity="1.000000" stroke="none" 
	d="
M227.375061,149.157227 
	C228.694366,148.797760 230.013672,148.438324 232.080872,148.092590 
	C234.525162,148.139145 236.221558,148.171982 237.917969,148.204803 
	C238.416870,148.449753 238.915787,148.694687 239.785950,149.200317 
	C240.374664,149.755020 240.662292,149.864365 241.020111,149.789093 
	C241.417160,150.152267 241.814209,150.515427 242.508255,151.306396 
	C243.191559,152.170746 243.577850,152.607330 243.964157,153.043900 
	C243.964157,153.043900 244.001434,153.001999 243.996338,153.304199 
	C244.198212,153.921005 244.405151,154.235611 244.612106,154.550201 
	C244.691437,154.884811 244.770752,155.219421 244.920868,156.193848 
	C245.048096,158.219467 245.104553,159.605240 245.161011,160.991028 
	C245.024292,161.308228 244.887558,161.625412 244.511261,162.410522 
	C244.196854,163.258911 244.122040,163.639374 244.047241,164.019836 
	C244.047241,164.019836 243.993668,164.013885 243.679413,164.120667 
	C240.928970,165.878815 238.492783,167.530167 236.056580,169.181534 
	C233.635101,168.843979 231.213608,168.506424 228.295715,167.788086 
	C221.556000,163.108322 221.737350,157.194412 225.016769,151.010452 
	C225.348175,150.958954 225.622650,150.805573 226.225983,150.270630 
	C226.866211,149.713043 227.120636,149.435135 227.375061,149.157227 
M237.797867,159.247879 
	C237.742538,156.487228 237.372498,153.604645 233.926361,153.604568 
	C232.639679,153.604553 230.638397,155.318375 230.202286,156.655060 
	C228.969482,160.433594 230.549927,163.264893 234.839920,165.005463 
	C235.725998,163.261154 236.578125,161.583740 237.797867,159.247879 
z"/>
<path fill="#56AC69" opacity="1.000000" stroke="none" 
	d="
M276.267822,176.458618 
	C280.334137,176.834991 282.453766,178.804611 281.514038,182.455017 
	C280.014130,188.281464 275.260345,185.687210 271.292175,186.073715 
	C270.959320,184.021851 270.663239,182.196808 270.367188,180.371750 
	C270.146271,180.366776 269.925354,180.361786 269.704437,180.356812 
	C268.997955,183.414902 268.747192,186.685822 267.448181,189.467194 
	C266.302521,191.920181 266.679169,196.730469 261.196991,195.338608 
	C261.796417,193.258133 262.338806,191.375687 262.770966,189.875793 
	C260.719666,188.117569 258.033569,186.862000 257.137695,184.820709 
	C255.477203,181.037247 259.153717,176.712738 263.860016,176.469208 
	C267.844238,176.263016 271.848114,176.436508 276.267822,176.458618 
z"/>
<path fill="#42AE5B" opacity="1.000000" stroke="none" 
	d="
M219.912918,149.232880 
	C220.235474,149.657166 220.558044,150.081451 220.822464,151.069519 
	C220.340698,152.665726 219.917068,153.698135 219.493439,154.730545 
	C219.314484,154.347275 219.135529,153.964005 218.956573,153.580734 
	C216.048752,154.266769 212.849030,154.458252 210.392273,155.908432 
	C209.538193,156.412567 209.778397,161.380005 210.818527,161.954102 
	C213.167175,163.250351 216.326096,163.078491 219.955582,163.624176 
	C219.982712,163.679749 220.550980,164.844009 221.119247,166.008255 
	C220.250427,166.856674 219.381622,167.705093 217.989182,168.725616 
	C217.314926,168.992462 217.164291,169.087219 217.013672,169.181961 
	C212.893570,168.234726 208.773453,167.287491 204.293732,165.901779 
	C203.665512,165.246872 203.396912,165.030426 203.128296,164.813995 
	C203.128296,164.813995 203.123642,164.935608 203.078339,164.499466 
	C200.087448,154.593918 204.241821,148.274887 213.550934,148.061844 
	C214.703979,148.035461 215.856705,147.995178 217.009567,147.961319 
	C217.255951,148.196579 217.547974,148.336761 218.320862,148.583069 
	C219.141678,148.933807 219.527298,149.083344 219.912918,149.232880 
z"/>
<path fill="#3DAE56" opacity="1.000000" stroke="none" 
	d="
M178.599686,148.237549 
	C178.989655,148.157318 179.244034,148.387970 179.514862,148.726685 
	C182.078293,152.610657 182.251556,149.313507 183.055511,148.052612 
	C184.730118,148.294174 186.404724,148.535736 188.408447,149.375809 
	C188.938232,152.609131 188.799118,154.794601 185.080582,154.389969 
	C184.108032,154.284149 183.000900,155.415039 181.955566,155.977936 
	C181.489929,160.174820 181.024292,164.371704 180.525253,168.869659 
	C178.458572,168.869659 176.382584,168.869659 173.375580,168.869659 
	C173.375580,162.860138 173.145386,156.937012 173.592972,151.065567 
	C173.671265,150.038300 176.598343,149.228195 178.599686,148.237549 
z"/>
<path fill="#56AC69" opacity="1.000000" stroke="none" 
	d="
M221.997101,187.897781 
	C222.282745,188.101852 222.568405,188.305923 222.947479,189.130737 
	C222.930710,190.775620 222.820526,191.799774 222.710358,192.823929 
	C219.893997,193.828400 217.077652,194.832886 214.833450,195.633316 
	C212.673874,193.907852 210.286072,192.295074 208.291168,190.291168 
	C207.164322,189.159241 206.024612,187.347931 206.103409,185.909058 
	C206.177383,184.558151 207.643585,183.040771 208.868317,182.060181 
	C210.241745,180.960556 212.031738,180.381210 214.128632,179.105728 
	C215.599915,178.376450 216.583054,178.116959 217.566208,177.857468 
	C217.289841,179.548431 216.395401,180.379410 215.822678,181.392303 
	C215.668716,181.664581 216.493530,182.490265 216.869034,183.061920 
	C217.179276,184.153152 217.489517,185.244400 218.052032,187.005676 
	C219.535233,187.749725 220.766174,187.823746 221.997101,187.897781 
z"/>
<path fill="#E1FAE7" opacity="1.000000" stroke="none" 
	d="
M221.470673,166.012909 
	C220.550980,164.844009 219.982712,163.679749 219.955582,163.624176 
	C216.326096,163.078491 213.167175,163.250351 210.818527,161.954102 
	C209.778397,161.380005 209.538193,156.412567 210.392273,155.908432 
	C212.849030,154.458252 216.048752,154.266769 218.956573,153.580734 
	C219.135529,153.964005 219.314484,154.347275 219.493439,154.730545 
	C219.917068,153.698135 220.340698,152.665726 220.937332,151.311600 
	C222.152023,150.990417 223.193726,150.990936 224.626099,151.000946 
	C221.737350,157.194412 221.556000,163.108322 227.884552,167.746887 
	C225.920578,167.396866 223.871338,166.707230 221.470673,166.012909 
z"/>
<path fill="#3DAE56" opacity="1.000000" stroke="none" 
	d="
M198.492599,149.684067 
	C198.579193,150.271179 198.665802,150.858276 198.744217,152.175201 
	C198.797760,156.933914 198.859497,160.962799 198.921204,164.991684 
	C198.829239,165.402313 198.737289,165.812943 198.241562,166.674423 
	C195.680847,167.362335 193.523895,167.599411 191.366943,167.836487 
	C191.366943,167.836487 191.226471,167.403168 191.182404,166.946625 
	C191.084534,166.326538 191.030762,166.163025 190.976974,165.999496 
	C191.031082,162.965942 191.085190,159.932388 191.172028,156.024521 
	C191.176865,153.131088 191.148987,151.111984 191.121109,149.092865 
	C191.121109,149.092865 190.998138,149.031952 191.476807,148.965775 
	C193.715668,148.830338 195.475830,148.761063 197.328690,148.979507 
	C197.778442,149.406158 198.135529,149.545120 198.492599,149.684067 
z"/>
<path fill="#56AC69" opacity="1.000000" stroke="none" 
	d="
M241.047623,178.345993 
	C244.383392,175.894135 244.383392,175.894135 245.835800,180.647003 
	C252.234741,179.820969 255.399689,181.869888 255.079483,186.831039 
	C255.011993,187.876480 254.024033,188.862518 253.460205,189.875916 
	C252.677704,189.062302 251.707214,188.356232 251.163498,187.405975 
	C250.574066,186.375809 250.382217,185.118134 250.016983,183.959656 
	C249.341324,183.936935 248.665680,183.914200 247.990021,183.891479 
	C247.639297,186.501694 247.424606,189.140533 246.883652,191.710709 
	C246.588608,193.112534 245.740601,194.397964 245.141983,195.735886 
	C244.393677,194.387390 243.250687,193.115524 242.971237,191.676025 
	C242.140884,187.398514 241.650345,183.055008 241.047623,178.345993 
z"/>
<path fill="#56AC69" opacity="1.000000" stroke="none" 
	d="
M226.941757,185.979660 
	C228.933823,183.431656 230.863953,180.831024 232.956604,178.368484 
	C233.565720,177.651688 234.639023,177.329346 235.499557,176.826187 
	C235.914703,177.761444 236.907303,178.937683 236.636459,179.586670 
	C235.832703,181.512695 234.618530,183.293304 233.394547,185.009308 
	C232.539505,186.208054 231.057022,187.059021 230.508957,188.344269 
	C230.097015,189.310287 230.724426,190.719482 230.889160,191.931396 
	C231.994324,191.555206 233.674438,191.496170 234.091339,190.740341 
	C235.130157,188.856995 236.102844,186.761047 238.240372,188.743073 
	C238.910873,189.364822 238.097900,192.556747 237.066147,193.863266 
	C233.889923,197.885391 230.598053,197.666290 226.144135,192.921371 
	C225.953690,191.119034 225.872742,190.035080 225.791794,188.951126 
	C225.881195,188.581757 225.970612,188.212387 226.330597,187.416504 
	C226.714691,186.653229 226.828217,186.316437 226.941757,185.979660 
z"/>
<path fill="#42AE5B" opacity="1.000000" stroke="none" 
	d="
M273.831451,154.073151 
	C275.784515,153.386826 277.737610,152.700516 280.100037,151.955597 
	C280.768433,156.563889 281.178009,161.231750 281.148987,165.896881 
	C281.143707,166.746155 279.347046,167.584305 278.197266,168.802094 
	C277.562317,169.169891 277.107452,169.163208 276.166687,168.728485 
	C275.179382,165.185257 274.677979,162.070068 274.176575,158.954880 
	C274.200012,158.207077 274.223480,157.459259 274.160583,156.030426 
	C273.993286,154.923981 273.912384,154.498566 273.831451,154.073151 
z"/>
<path fill="#E1FAE7" opacity="1.000000" stroke="none" 
	d="
M199.348557,164.992569 
	C198.859497,160.962799 198.797760,156.933914 198.848938,152.452911 
	C200.763992,151.052658 202.727539,150.319809 204.336166,149.113586 
	C208.233765,146.190994 212.456039,146.244629 216.942566,147.600266 
	C215.856705,147.995178 214.703979,148.035461 213.550934,148.061844 
	C204.241821,148.274887 200.087448,154.593918 203.115723,164.451447 
	C202.057587,164.890884 200.916748,164.942169 199.348557,164.992569 
z"/>
<path fill="#D6F6DE" opacity="1.000000" stroke="none" 
	d="
M190.718521,149.075439 
	C191.148987,151.111984 191.176865,153.131088 191.105804,155.574066 
	C188.291977,155.996719 185.577072,155.995529 182.408875,155.986130 
	C183.000900,155.415039 184.108032,154.284149 185.080582,154.389969 
	C188.799118,154.794601 188.938232,152.609131 188.722992,149.565826 
	C189.244247,149.124237 189.780090,149.091125 190.718521,149.075439 
z"/>
<path fill="#D2F6DB" opacity="1.000000" stroke="none" 
	d="
M217.160889,182.867279 
	C216.493530,182.490265 215.668716,181.664581 215.822678,181.392303 
	C216.395401,180.379410 217.289841,179.548431 217.566208,177.857468 
	C216.583054,178.116959 215.599915,178.376450 214.295441,178.795258 
	C214.380508,176.127472 216.505264,174.990997 218.343491,176.576569 
	C219.178238,177.296616 217.817535,180.561920 217.160889,182.867279 
z"/>
<path fill="#D2F6DB" opacity="1.000000" stroke="none" 
	d="
M273.859406,159.213959 
	C274.677979,162.070068 275.179382,165.185257 275.827637,168.690231 
	C275.017456,168.293152 273.339447,167.585632 273.242432,166.704117 
	C272.981567,164.333450 273.395935,161.888489 273.859406,159.213959 
z"/>
<path fill="#56AC69" opacity="1.000000" stroke="none" 
	d="
M261.475525,164.346207 
	C263.223602,166.086655 264.056213,169.774139 268.370361,167.026337 
	C268.803131,167.128723 268.878082,167.298187 268.938751,167.955963 
	C268.924438,168.444290 268.869934,168.917236 268.869934,168.917236 
	C266.599091,169.039520 264.328217,169.161819 261.325836,169.323517 
	C261.325836,167.505737 261.325836,166.118942 261.475525,164.346207 
z"/>
<path fill="#D2F6DB" opacity="1.000000" stroke="none" 
	d="
M273.469788,153.998642 
	C273.912384,154.498566 273.993286,154.923981 274.043549,155.672821 
	C271.278320,155.674179 269.703156,156.476532 269.948547,159.646194 
	C270.095276,161.541275 269.760803,163.473587 269.372253,165.690262 
	C269.017090,164.595001 268.932312,163.198669 268.877594,160.962845 
	C269.034149,158.117874 269.160614,156.112396 269.287048,154.106903 
	C269.287048,154.106903 269.673065,154.052902 270.091309,153.961197 
	C270.509521,153.869492 270.921295,153.596024 270.921295,153.596024 
	C271.650238,153.705399 272.379211,153.814774 273.469788,153.998642 
z"/>
<path fill="#D2F6DB" opacity="1.000000" stroke="none" 
	d="
M236.285828,169.430405 
	C238.492783,167.530167 240.928970,165.878815 243.698654,164.139587 
	C243.346191,168.358307 240.548141,169.843658 236.285828,169.430405 
z"/>
<path fill="#7AC28B" opacity="1.000000" stroke="none" 
	d="
M191.356567,168.198792 
	C193.523895,167.599411 195.680847,167.362335 198.168121,166.982178 
	C197.429550,170.118347 196.196533,170.415207 191.356567,168.198792 
z"/>
<path fill="#D2F6DB" opacity="1.000000" stroke="none" 
	d="
M225.458862,188.965363 
	C225.872742,190.035080 225.953690,191.119034 225.982513,192.608002 
	C225.124466,192.992859 224.318527,192.972717 223.111481,192.888245 
	C222.820526,191.799774 222.930710,190.775620 223.083878,189.358932 
	C223.793213,188.970795 224.459564,188.975204 225.458862,188.965363 
z"/>
<path fill="#D2F6DB" opacity="1.000000" stroke="none" 
	d="
M256.374573,167.689011 
	C256.127197,164.152252 256.159729,160.316360 256.461823,156.156952 
	C256.705750,159.685577 256.680145,163.537720 256.374573,167.689011 
z"/>
<path fill="#D2F6DB" opacity="1.000000" stroke="none" 
	d="
M257.115540,155.772705 
	C257.933136,152.837753 259.396515,152.522095 261.089355,155.633804 
	C259.887939,155.930573 258.718170,155.898468 257.115540,155.772705 
z"/>
<path fill="#B2E4BD" opacity="1.000000" stroke="none" 
	d="
M162.144272,169.068237 
	C163.550934,168.871063 164.932632,168.947952 166.713516,169.144501 
	C165.691559,169.506622 164.270432,169.749084 162.517639,169.940125 
	C162.163742,169.706573 162.141525,169.524445 162.144272,169.068237 
z"/>
<path fill="#56AC69" opacity="1.000000" stroke="none" 
	d="
M261.394958,156.265900 
	C261.707001,156.861908 261.920197,157.851379 261.873444,158.939789 
	C261.507690,158.245605 261.401917,157.452469 261.394958,156.265900 
z"/>
<path fill="#B2E4BD" opacity="1.000000" stroke="none" 
	d="
M168.958710,148.654053 
	C168.161285,148.813873 167.289444,148.708130 166.207794,148.350189 
	C166.450577,147.724335 166.903168,147.350677 167.680313,146.988174 
	C168.298019,147.462387 168.591156,147.925446 168.958710,148.654053 
z"/>
<path fill="#D2F6DB" opacity="1.000000" stroke="none" 
	d="
M245.405365,160.747101 
	C245.104553,159.605240 245.048096,158.219467 245.047394,156.420593 
	C245.285339,157.506073 245.467514,159.004623 245.405365,160.747101 
z"/>
<path fill="#D2F6DB" opacity="1.000000" stroke="none" 
	d="
M221.751434,187.647644 
	C220.766174,187.823746 219.535233,187.749725 218.160583,187.328217 
	C219.179825,187.119659 220.342789,187.258575 221.751434,187.647644 
z"/>
<path fill="#D2F6DB" opacity="1.000000" stroke="none" 
	d="
M199.971573,179.756012 
	C199.654251,179.956329 199.426865,179.789688 199.387497,179.220581 
	C199.671051,179.133224 199.833038,179.323547 199.971573,179.756012 
z"/>
<path fill="#D2F6DB" opacity="1.000000" stroke="none" 
	d="
M202.912354,182.874329 
	C202.618301,183.006149 202.387131,182.791809 202.229584,182.226837 
	C202.516495,182.109375 202.740509,182.326706 202.912354,182.874329 
z"/>
<path fill="#D2F6DB" opacity="1.000000" stroke="none" 
	d="
M226.712906,186.127533 
	C226.828217,186.316437 226.714691,186.653229 226.369110,187.134064 
	C226.252731,186.943893 226.368393,186.609650 226.712906,186.127533 
z"/>
<path fill="#D2F6DB" opacity="1.000000" stroke="none" 
	d="
M244.287994,163.829803 
	C244.122040,163.639374 244.196854,163.258911 244.480011,162.668213 
	C244.635162,162.851898 244.581970,163.245850 244.287994,163.829803 
z"/>
<path fill="#D6F6DE" opacity="1.000000" stroke="none" 
	d="
M190.809265,166.089539 
	C191.030762,166.163025 191.084534,166.326538 191.082214,166.742065 
	C190.897919,166.722565 190.769730,166.451080 190.809265,166.089539 
z"/>
<path fill="#E1FAE7" opacity="1.000000" stroke="none" 
	d="
M203.175842,165.075745 
	C203.396912,165.030426 203.665512,165.246872 203.979446,165.728012 
	C203.757629,165.774323 203.490494,165.555923 203.175842,165.075745 
z"/>
<path fill="#E1FAE7" opacity="1.000000" stroke="none" 
	d="
M217.132721,169.324417 
	C217.164291,169.087219 217.314926,168.992462 217.732208,168.909546 
	C217.749832,169.103210 217.500793,169.285049 217.132721,169.324417 
z"/>
<path fill="#D2F6DB" opacity="1.000000" stroke="none" 
	d="
M244.741821,154.167648 
	C244.405151,154.235611 244.198212,153.921005 243.973358,153.319794 
	C244.133163,153.018936 244.310898,153.004684 244.756332,152.991089 
	C244.973206,153.256180 244.922363,153.520645 244.741821,154.167648 
z"/>
<path fill="#D2F6DB" opacity="1.000000" stroke="none" 
	d="
M269.052124,168.880325 
	C268.869934,168.917236 268.924438,168.444290 269.013550,168.223694 
	C269.231781,168.195221 269.377716,168.379471 269.475159,168.586502 
	C269.493591,168.625671 269.319550,168.755447 269.052124,168.880325 
z"/>
<path fill="#FFFFFF" opacity="1.000000" stroke="none" 
	d="
M79.077934,156.892532 
	C77.972527,159.541290 76.867119,162.190048 75.026573,164.913620 
	C72.867477,165.564117 71.443512,166.139801 69.698761,166.832367 
	C68.928436,167.011673 68.478897,167.074081 67.767822,166.824219 
	C65.092506,166.479721 62.661751,166.614548 60.269390,166.371506 
	C57.493340,166.089462 54.750984,165.475723 51.999935,164.637039 
	C52.847630,162.544571 53.641750,160.795654 54.543343,159.104019 
	C55.643360,157.040070 56.833652,155.024261 57.984898,152.987625 
	C57.984898,152.987625 58.000000,153.000000 58.420383,152.998047 
	C60.723438,152.996109 62.606110,152.996109 64.957893,152.996109 
	C64.148201,150.106812 63.578819,148.075012 63.009430,146.043198 
	C63.009430,146.043198 63.002728,146.017487 63.447815,146.011017 
	C66.614471,145.715118 70.639526,147.405441 69.987389,141.991928 
	C69.987389,141.991928 69.997787,141.998474 69.994415,141.993103 
	C76.664253,140.261673 76.708069,140.337036 76.143379,147.465683 
	C76.083084,148.226898 76.908829,149.058304 77.967117,150.191147 
	C78.766441,152.647614 78.922188,154.770065 79.077934,156.892532 
z"/>
<path fill="#42AE5B" opacity="1.000000" stroke="none" 
	d="
M92.396606,169.379364 
	C91.558327,169.420883 91.105812,169.358414 90.321030,169.393173 
	C88.936272,169.384888 87.883781,169.279373 86.199150,169.023880 
	C85.385178,168.886719 85.203339,168.899536 85.021500,168.912338 
	C85.021500,168.912338 84.712219,168.750458 84.304855,168.536346 
	C83.060234,168.100891 82.222977,167.879562 81.360947,167.667435 
	C81.336166,167.676620 81.284065,167.667633 81.156006,167.427002 
	C80.689316,167.112167 80.350677,167.037964 79.795227,166.880051 
	C79.578415,166.796356 79.122322,166.706741 79.122314,166.706741 
	C80.359970,164.883926 81.597633,163.061111 83.352036,161.487518 
	C84.241341,161.835175 84.613899,161.933624 84.986458,162.032089 
	C84.986458,162.032089 84.994713,161.996567 85.150085,162.255066 
	C85.872208,162.616501 86.438965,162.719452 87.005722,162.822418 
	C87.741165,162.960327 88.476616,163.098236 89.853958,163.365143 
	C92.236198,162.650116 93.976547,161.806107 95.716888,160.962097 
	C94.166191,159.947830 92.657547,158.858566 91.045135,157.954346 
	C90.351006,157.565109 89.437180,157.577972 88.631042,157.376556 
	C80.076187,155.239151 78.225960,151.051361 82.352104,143.178619 
	C82.627213,143.109833 82.846703,142.959732 83.463211,142.429138 
	C88.628044,141.659821 93.340240,141.189636 98.052437,140.719452 
	C98.460693,140.866226 98.868950,141.012985 99.769859,141.430832 
	C100.789543,141.891846 101.316566,142.081787 101.843597,142.271713 
	C101.924675,142.656250 102.005745,143.040802 101.945847,143.986206 
	C101.540352,145.363525 101.275833,146.179962 101.011314,146.996399 
	C101.011314,146.996399 100.789391,147.219696 100.462837,147.426865 
	C99.536201,147.651093 98.936119,147.668152 98.308105,147.685226 
	C98.280182,147.685242 98.224792,147.678131 97.998466,147.409973 
	C96.181679,146.752731 94.591217,146.363663 92.670753,145.915741 
	C91.900429,145.911850 91.460106,145.966797 90.635933,145.994781 
	C89.456718,146.877411 88.661362,147.787033 87.865997,148.696655 
	C88.960365,149.549530 89.956154,150.592651 91.167274,151.220184 
	C95.062645,153.238510 99.037506,155.103439 102.989616,157.015289 
	C102.997528,157.003067 102.975044,157.012375 102.991508,157.269608 
	C103.091530,157.677002 103.175087,157.827148 103.263474,158.407593 
	C103.175400,160.551941 103.082489,162.266037 102.989578,163.980118 
	C102.627975,164.432983 102.266373,164.885864 101.821579,165.621033 
	C101.422287,165.931808 101.183456,166.082642 100.675598,166.624802 
	C99.858253,167.212082 99.387207,167.530396 98.632484,167.892548 
	C98.075012,168.192215 97.801208,168.448029 97.527405,168.703857 
	C95.945732,168.894363 94.364052,169.084869 92.396606,169.379364 
z"/>
<path fill="#42AE5B" opacity="1.000000" stroke="none" 
	d="
M119.633583,168.802246 
	C114.746094,169.906677 110.636536,168.994675 107.698318,163.622650 
	C107.249947,160.624191 107.086617,158.310699 107.011276,155.763275 
	C107.099258,155.529312 107.084396,155.029648 107.283745,154.826523 
	C107.604233,154.076492 107.725372,153.529587 107.846512,152.982681 
	C107.846504,152.982681 108.114693,152.734650 108.395370,152.407883 
	C108.819313,151.741196 108.962585,151.401260 109.105850,151.061340 
	C109.105850,151.061340 109.002975,151.025665 109.363495,150.899719 
	C111.921913,149.904602 114.083229,148.432373 116.325600,148.296310 
	C120.528137,148.041367 124.777618,148.560028 129.066010,149.237579 
	C129.225891,155.821213 129.327301,161.924164 129.428711,168.027130 
	C127.501930,168.399780 125.575142,168.772430 123.136024,168.829285 
	C121.626984,168.609726 120.630287,168.705994 119.633583,168.802246 
M115.558182,154.844696 
	C115.177391,156.846420 114.280609,158.937195 114.605110,160.817184 
	C114.806786,161.985565 116.733704,163.266068 118.125443,163.667877 
	C118.982201,163.915237 121.062737,162.773163 121.243790,161.955856 
	C121.711220,159.845825 121.980110,157.344162 121.208107,155.457230 
	C120.834908,154.545044 117.943207,154.663269 115.558182,154.844696 
z"/>
<path fill="#42AE5B" opacity="1.000000" stroke="none" 
	d="
M134.381104,142.899185 
	C136.498917,141.508545 138.461700,139.879837 140.694748,139.309814 
	C144.223022,138.409134 146.446976,139.799484 145.746964,144.340225 
	C145.774246,144.731903 145.816116,144.738251 145.437286,144.808868 
	C143.701035,145.369705 142.343628,145.859940 140.475876,146.534470 
	C146.076630,150.364243 146.060516,151.145172 141.151245,155.072418 
	C140.994629,155.197708 141.130600,155.688766 141.130173,156.009323 
	C141.062653,156.454208 140.995132,156.899094 140.933319,157.921997 
	C140.985474,158.664139 141.031952,158.828293 141.078430,158.992447 
	C141.020355,160.712463 140.962296,162.432480 140.897659,164.904755 
	C140.945435,166.104630 140.999786,166.552231 141.054123,166.999847 
	C140.581223,167.708405 140.108322,168.416946 139.067108,169.165466 
	C138.336258,169.258026 138.173721,169.310638 138.011185,169.363251 
	C136.870895,169.291870 135.730591,169.220490 134.113068,168.639954 
	C133.569992,161.044601 133.504135,153.958405 133.584106,146.530685 
	C133.781265,145.448959 133.832581,144.708755 133.883896,143.968552 
	C134.100494,143.725586 134.254974,143.448044 134.381104,142.899185 
z"/>
<path fill="#DF434B" opacity="1.000000" stroke="none" 
	d="
M94.846954,126.645874 
	C100.592491,125.211540 106.268173,123.147255 112.101028,122.500618 
	C119.572678,121.672302 122.387810,126.392395 118.530258,132.783813 
	C116.589478,135.999420 113.746872,138.670731 110.707588,142.312515 
	C110.190399,140.312836 109.886795,139.803970 109.972511,139.372437 
	C111.786880,130.238327 110.443184,128.644897 100.917488,128.793732 
	C99.255951,128.819687 97.596405,128.972702 95.462845,128.652100 
	C94.942154,127.706726 94.894554,127.176300 94.846954,126.645874 
z"/>
<path fill="#E8FCEE" opacity="1.000000" stroke="none" 
	d="
M133.438278,146.872208 
	C133.504135,153.958405 133.569992,161.044601 133.685043,168.602921 
	C132.512924,168.726959 131.291611,168.378860 129.749512,168.028946 
	C129.327301,161.924164 129.225891,155.821213 128.898682,149.025528 
	C128.106491,147.900909 127.540092,147.469009 126.973686,147.037125 
	C128.752823,146.048950 130.531967,145.060776 132.652405,144.334259 
	C133.141907,145.354660 133.290100,146.113434 133.438278,146.872208 
z"/>
<path fill="#D6F6DE" opacity="1.000000" stroke="none" 
	d="
M81.967499,143.154663 
	C78.225960,151.051361 80.076187,155.239151 88.631042,157.376556 
	C89.437180,157.577972 90.351006,157.565109 91.045135,157.954346 
	C92.657547,158.858566 94.166191,159.947830 95.716888,160.962097 
	C93.976547,161.806107 92.236198,162.650116 90.228226,163.305206 
	C90.848969,162.465866 91.737343,161.815460 93.381241,160.611908 
	C88.457199,159.270782 84.163315,158.101303 79.473686,156.912170 
	C78.922188,154.770065 78.766441,152.647614 78.337082,150.245819 
	C79.236603,147.687897 80.409744,145.409302 81.967499,143.154663 
z"/>
<path fill="#D6F6DE" opacity="1.000000" stroke="none" 
	d="
M102.981705,157.027527 
	C99.037506,155.103439 95.062645,153.238510 91.167274,151.220184 
	C89.956154,150.592651 88.960365,149.549530 87.865997,148.696655 
	C88.661362,147.787033 89.456718,146.877411 90.604111,146.340454 
	C91.428535,147.795639 92.149277,149.857590 92.335258,149.810440 
	C94.383469,149.291122 96.348480,148.443695 98.336037,147.685211 
	C98.936119,147.668152 99.536201,147.651093 100.433510,147.581512 
	C101.244499,149.573532 101.758263,151.618057 102.620758,154.236588 
	C102.973564,155.549576 102.977638,156.288544 102.981705,157.027527 
z"/>
<path fill="#E8FCEE" opacity="1.000000" stroke="none" 
	d="
M102.989616,157.015289 
	C102.977638,156.288544 102.973564,155.549576 102.953003,154.443436 
	C104.332733,153.714630 105.728958,153.352982 107.485847,152.987000 
	C107.725372,153.529587 107.604233,154.076492 107.103134,154.885681 
	C106.643173,155.244324 106.475861,155.390045 106.497757,155.428741 
	C106.613327,155.633102 106.776573,155.810486 106.923286,155.997223 
	C107.086617,158.310699 107.249947,160.624191 107.493958,163.363022 
	C106.193733,164.027939 104.812828,164.267487 103.210754,164.243591 
	C103.082489,162.266037 103.175400,160.551941 103.389786,158.284424 
	C103.332527,157.491455 103.153786,157.251907 102.975044,157.012375 
	C102.975044,157.012375 102.997528,157.003067 102.989616,157.015289 
z"/>
<path fill="#D6F6DE" opacity="1.000000" stroke="none" 
	d="
M126.509079,147.031677 
	C127.540092,147.469009 128.106491,147.900909 128.840240,148.544861 
	C124.777618,148.560028 120.528137,148.041367 116.325600,148.296310 
	C114.083229,148.432373 111.921913,149.904602 109.405884,150.933899 
	C108.769531,147.532257 111.277863,147.118958 113.824104,147.047348 
	C117.894547,146.932892 121.970726,147.022751 126.509079,147.031677 
z"/>
<path fill="#D6F6DE" opacity="1.000000" stroke="none" 
	d="
M97.921600,140.353302 
	C93.340240,141.189636 88.628044,141.659821 83.547058,142.244476 
	C84.039131,141.333755 84.878204,139.452896 85.764618,139.430328 
	C89.766006,139.328400 93.780807,139.752548 97.921600,140.353302 
z"/>
<path fill="#C0676A" opacity="1.000000" stroke="none" 
	d="
M94.499786,126.677101 
	C94.894554,127.176300 94.942154,127.706726 95.000488,128.636230 
	C93.219955,129.658127 91.428696,130.280914 89.329628,131.100784 
	C87.847237,131.370102 86.672653,131.442368 85.498062,131.514618 
	C85.364204,131.106247 85.230347,130.697876 85.096489,130.289505 
	C86.579903,129.708908 88.063316,129.128326 89.707672,128.253860 
	C89.868622,127.959969 89.961609,127.973236 90.239693,127.877029 
	C90.815689,127.566628 91.113602,127.352432 91.411514,127.138229 
	C92.325211,126.994934 93.238914,126.851631 94.499786,126.677101 
z"/>
<path fill="#FFFFFF" opacity="1.000000" stroke="none" 
	d="
M121.447754,134.578690 
	C122.203659,133.597214 123.106010,132.928040 124.008369,132.258865 
	C124.240913,132.955170 124.473457,133.651489 124.706001,134.347794 
	C123.668739,134.528854 122.631470,134.709915 121.447754,134.578690 
z"/>
<path fill="#D6F6DE" opacity="1.000000" stroke="none" 
	d="
M101.327644,146.960236 
	C101.275833,146.179962 101.540352,145.363525 101.991028,144.277527 
	C101.999443,144.979996 101.821709,145.952026 101.327644,146.960236 
z"/>
<path fill="#D6F6DE" opacity="1.000000" stroke="none" 
	d="
M101.860146,141.952301 
	C101.316566,142.081787 100.789543,141.891846 100.092743,141.475723 
	C100.574211,141.377335 101.225449,141.505112 101.860146,141.952301 
z"/>
<path fill="#D6F6DE" opacity="1.000000" stroke="none" 
	d="
M133.584106,146.530685 
	C133.290100,146.113434 133.141907,145.354660 132.997467,144.296722 
	C133.001221,143.997559 133.442108,143.968262 133.662994,143.968414 
	C133.832581,144.708755 133.781265,145.448959 133.584106,146.530685 
z"/>
<path fill="#FCECEC" opacity="1.000000" stroke="none" 
	d="
M91.125427,127.159805 
	C91.113602,127.352432 90.815689,127.566628 90.241966,127.830124 
	C90.257217,127.646736 90.548286,127.414047 91.125427,127.159805 
z"/>
<path fill="#D6F6DE" opacity="1.000000" stroke="none" 
	d="
M108.840134,151.186249 
	C108.962585,151.401260 108.819313,151.741196 108.434860,152.229553 
	C108.320602,152.022369 108.447517,151.666763 108.840134,151.186249 
z"/>
<path fill="#D6F6DE" opacity="1.000000" stroke="none" 
	d="
M197.236008,148.691803 
	C195.475830,148.761063 193.715668,148.830338 191.529724,149.009537 
	C191.111008,148.228226 191.118042,147.336975 191.192429,146.002304 
	C193.458084,145.585648 195.656418,145.612396 198.253693,145.550125 
	C198.714478,146.423187 198.776321,147.385269 198.373474,148.555267 
	C197.684509,148.739395 197.460251,148.715591 197.236008,148.691803 
z"/>
<path fill="#D2F6DB" opacity="1.000000" stroke="none" 
	d="
M237.727600,147.887848 
	C236.221558,148.171982 234.525162,148.139145 232.414261,148.011780 
	C233.845581,147.801804 235.691406,147.686340 237.727600,147.887848 
z"/>
<path fill="#D2F6DB" opacity="1.000000" stroke="none" 
	d="
M243.967010,152.716858 
	C243.577850,152.607330 243.191559,152.170746 242.743332,151.437744 
	C243.110901,151.557465 243.540375,151.973648 243.967010,152.716858 
z"/>
<path fill="#D2F6DB" opacity="1.000000" stroke="none" 
	d="
M240.914307,149.581635 
	C240.662292,149.864365 240.374664,149.755020 240.067902,149.235443 
	C240.313812,148.997879 240.590454,149.119308 240.914307,149.581635 
z"/>
<path fill="#E1FAE7" opacity="1.000000" stroke="none" 
	d="
M227.079498,149.194550 
	C227.120636,149.435135 226.866211,149.713043 226.329132,150.054092 
	C226.292297,149.822113 226.538116,149.527008 227.079498,149.194550 
z"/>
<path fill="#7AC28B" opacity="1.000000" stroke="none" 
	d="
M197.328690,148.979507 
	C197.460251,148.715591 197.684509,148.739395 198.224548,148.884308 
	C198.540314,149.005447 198.617157,149.353119 198.554871,149.518585 
	C198.135529,149.545120 197.778442,149.406158 197.328690,148.979507 
z"/>
<path fill="#E1FAE7" opacity="1.000000" stroke="none" 
	d="
M219.768433,148.929611 
	C219.527298,149.083344 219.141678,148.933807 218.562561,148.535217 
	C218.787354,148.399567 219.205658,148.512955 219.768433,148.929611 
z"/>
<path fill="#F8FDFA" opacity="1.000000" stroke="none" 
	d="
M57.638977,153.025970 
	C56.833652,155.024261 55.643360,157.040070 54.543343,159.104019 
	C53.641750,160.795654 52.847630,162.544571 51.629013,164.562683 
	C50.823498,163.209198 50.394840,161.561157 49.990555,159.667450 
	C50.014927,159.421783 50.254765,158.990234 50.436310,158.860672 
	C50.833881,158.502411 50.940739,158.230759 50.927906,157.920929 
	C50.917374,157.925705 50.900253,157.896835 50.900253,157.896835 
	C53.031189,156.285995 55.162125,154.675156 57.638977,153.025970 
z"/>
<path fill="#C0676A" opacity="1.000000" stroke="none" 
	d="
M51.919456,155.208466 
	C50.582043,152.147476 48.871677,154.929352 47.122383,154.892151 
	C49.723682,152.051926 52.274033,148.611862 56.492390,147.751801 
	C56.811573,148.101883 57.130760,148.451965 57.449944,148.802048 
	C55.698032,150.889145 53.946121,152.976257 51.919456,155.208466 
z"/>
<path fill="#F8FDFA" opacity="1.000000" stroke="none" 
	d="
M62.739830,146.151642 
	C63.578819,148.075012 64.148201,150.106812 64.957893,152.996109 
	C62.606110,152.996109 60.723438,152.996109 58.413857,152.990479 
	C58.144073,151.823776 58.301193,150.662689 58.912415,149.498169 
	C59.911625,148.997559 60.456734,148.500412 61.001839,148.003265 
	C61.491302,147.422211 61.980766,146.841156 62.739830,146.151642 
z"/>
<path fill="#FBF7F6" opacity="1.000000" stroke="none" 
	d="
M69.642746,142.048920 
	C70.639526,147.405441 66.614471,145.715118 63.460655,146.007706 
	C65.118309,144.709198 67.208214,143.407562 69.642746,142.048920 
z"/>
<path fill="#C0676A" opacity="1.000000" stroke="none" 
	d="
M50.254765,158.990234 
	C50.254765,158.990234 50.014927,159.421783 49.797035,159.728409 
	C49.579144,160.035034 49.188274,160.143890 49.188278,160.143890 
	C49.708729,158.589783 50.229179,157.035675 51.123524,155.477753 
	C51.327221,156.072968 51.157024,156.671997 50.943539,157.583923 
	C50.900253,157.896835 50.917374,157.925705 50.714226,158.021317 
	C50.266434,158.361313 50.180996,158.652405 50.254765,158.990234 
z"/>
<path fill="#FBF7F6" opacity="1.000000" stroke="none" 
	d="
M60.740116,148.109924 
	C60.456734,148.500412 59.911625,148.997559 59.187561,149.278336 
	C59.498535,148.780182 59.988461,148.498383 60.740116,148.109924 
z"/>
<path fill="#E8FCEE" opacity="1.000000" stroke="none" 
	d="
M141.501648,156.001434 
	C141.130600,155.688766 140.994629,155.197708 141.151245,155.072418 
	C146.060516,151.145172 146.076630,150.364243 140.475876,146.534470 
	C142.343628,145.859940 143.701035,145.369705 145.427307,144.820007 
	C145.976425,146.330643 146.156693,147.900742 146.406128,150.073303 
	C151.479645,146.596039 156.305984,143.646912 162.070496,147.985321 
	C162.171616,148.405792 162.209396,148.736526 161.786560,148.917130 
	C161.143692,149.152847 160.923660,149.207947 160.703613,149.263031 
	C151.672043,145.989746 147.142426,149.916458 146.970093,161.553452 
	C146.453842,159.943604 145.986847,157.906189 145.436569,155.505539 
	C144.336273,155.656235 143.104706,155.824890 141.501648,156.001434 
z"/>
<path fill="#B2E4BD" opacity="1.000000" stroke="none" 
	d="
M182.614731,148.024261 
	C182.251556,149.313507 182.078293,152.610657 179.680695,148.771118 
	C180.441788,148.316528 181.307861,148.156219 182.614731,148.024261 
z"/>
<path fill="#E8FCEE" opacity="1.000000" stroke="none" 
	d="
M147.075500,163.109695 
	C148.640152,164.566986 150.166550,166.427185 151.882248,168.549408 
	C148.769379,169.390366 147.549789,168.106689 147.075500,163.109695 
z"/>
<path fill="#D6F6DE" opacity="1.000000" stroke="none" 
	d="
M120.022491,168.869812 
	C120.630287,168.705994 121.626984,168.609726 122.693336,168.801758 
	C121.979126,169.039139 121.195259,168.988251 120.022491,168.869812 
z"/>
<path fill="#E8FCEE" opacity="1.000000" stroke="none" 
	d="
M141.346191,166.960983 
	C140.999786,166.552231 140.945435,166.104630 140.981079,165.327972 
	C141.572708,165.319916 142.074341,165.640900 142.575974,165.961899 
	C142.263412,166.281967 141.950836,166.602051 141.346191,166.960983 
z"/>
<path fill="#E8FCEE" opacity="1.000000" stroke="none" 
	d="
M141.235931,158.903580 
	C141.031952,158.828293 140.985474,158.664139 141.008301,158.253677 
	C141.182877,158.276474 141.288147,158.545593 141.235931,158.903580 
z"/>
<path fill="#D6F6DE" opacity="1.000000" stroke="none" 
	d="
M138.107269,169.491501 
	C138.173721,169.310638 138.336258,169.258026 138.743668,169.280807 
	C138.988541,169.356186 138.651672,169.673203 138.651672,169.673203 
	C138.651672,169.673203 138.203369,169.619751 138.107269,169.491501 
z"/>
<path fill="#FCECEC" opacity="1.000000" stroke="none" 
	d="
M49.153404,160.129456 
	C49.188274,160.143890 49.579144,160.035034 49.772663,159.974060 
	C50.394840,161.561157 50.823498,163.209198 51.623077,164.931610 
	C54.750984,165.475723 57.493340,166.089462 60.269390,166.371506 
	C62.661751,166.614548 65.092506,166.479721 67.506332,167.048843 
	C65.985718,168.037231 64.465034,168.488770 62.944359,168.940308 
	C62.211308,168.999893 61.478264,169.059509 59.968163,169.078247 
	C56.508427,168.608612 53.825741,168.179825 51.143051,167.751038 
	C50.526291,166.991669 49.909527,166.232315 49.208473,164.809097 
	C49.143673,162.789337 49.163166,161.433441 49.182663,160.077530 
	C49.182663,160.077530 49.118530,160.115005 49.153404,160.129456 
z"/>
<path fill="#C0676A" opacity="1.000000" stroke="none" 
	d="
M63.049568,169.196594 
	C64.465034,168.488770 65.985718,168.037231 67.767883,167.361084 
	C68.478897,167.074081 68.928436,167.011673 70.029327,166.924286 
	C70.943939,167.532257 71.207191,168.165222 71.470451,168.798203 
	C69.827599,169.459686 68.184753,170.121185 65.986908,170.980560 
	C65.150276,171.404999 64.868645,171.631561 64.587013,171.858124 
	C64.209038,171.930649 63.831055,172.003159 62.977180,172.168060 
	C62.501289,172.260452 62.057613,172.144043 62.057617,172.144043 
	C62.423336,171.246994 62.789055,170.349930 63.049568,169.196594 
z"/>
<path fill="#C0676A" opacity="1.000000" stroke="none" 
	d="
M51.293983,168.091415 
	C53.825741,168.179825 56.508427,168.608612 59.604362,169.132492 
	C57.160049,168.962326 54.302479,168.697067 51.293983,168.091415 
z"/>
<path fill="#FCECEC" opacity="1.000000" stroke="none" 
	d="
M59.696251,173.313324 
	C60.167110,176.680618 58.144211,175.476639 56.123203,174.959198 
	C56.968674,174.365204 58.166084,173.830215 59.696251,173.313324 
z"/>
<path fill="#C0676A" opacity="1.000000" stroke="none" 
	d="
M48.881802,160.267273 
	C49.163166,161.433441 49.143673,162.789337 49.073879,164.547134 
	C48.876030,163.451691 48.728485,161.954361 48.881802,160.267273 
z"/>
<path fill="#FCECEC" opacity="1.000000" stroke="none" 
	d="
M61.954826,172.323486 
	C62.057613,172.144043 62.501289,172.260452 62.724754,172.311554 
	C62.762100,172.639374 62.505913,172.812469 61.941254,172.885315 
	C61.702850,172.888702 61.852043,172.502945 61.954826,172.323486 
z"/>
<path fill="#FCECEC" opacity="1.000000" stroke="none" 
	d="
M71.868721,168.834854 
	C71.207191,168.165222 70.943939,167.532257 70.350113,166.807373 
	C71.443512,166.139801 72.867477,165.564117 74.651520,164.990112 
	C74.096725,166.285049 73.181854,167.578278 71.868721,168.834854 
z"/>
<path fill="#F2FCF5" opacity="1.000000" stroke="none" 
	d="
M79.065872,167.067139 
	C79.122322,166.706741 79.578415,166.796356 79.931152,167.112457 
	C80.617279,167.508255 80.950668,167.587952 81.284065,167.667633 
	C81.284065,167.667633 81.336166,167.676620 81.241669,167.980469 
	C81.106979,168.502884 81.066803,168.721451 81.026619,168.940018 
	C80.121567,169.980179 79.216515,171.020355 78.311462,172.060516 
	C77.976486,171.836517 77.641510,171.612503 77.306534,171.388504 
	C77.874161,170.068192 78.441788,168.747864 79.065872,167.067139 
z"/>
<path fill="#F2FCF5" opacity="1.000000" stroke="none" 
	d="
M86.034958,170.003189 
	C86.133148,170.503494 86.231339,171.003815 86.329529,171.504120 
	C85.909134,171.186829 85.488739,170.869553 85.295517,170.270767 
	C85.693459,169.993896 85.864204,169.998535 86.034958,170.003189 
z"/>
<path fill="#D6F6DE" opacity="1.000000" stroke="none" 
	d="
M81.443893,168.956390 
	C81.066803,168.721451 81.106979,168.502884 81.266449,167.971283 
	C82.222977,167.879562 83.060234,168.100891 84.131836,168.559418 
	C83.531181,168.855331 82.696175,168.914047 81.443893,168.956390 
z"/>
<path fill="#D6F6DE" opacity="1.000000" stroke="none" 
	d="
M86.821449,162.596741 
	C86.438965,162.719452 85.872208,162.616501 85.137375,162.268799 
	C85.525261,162.139709 86.081223,162.255386 86.821449,162.596741 
z"/>
<path fill="#D6F6DE" opacity="1.000000" stroke="none" 
	d="
M84.816956,161.782593 
	C84.613899,161.933624 84.241341,161.835175 83.688217,161.502563 
	C83.887581,161.356644 84.267517,161.444870 84.816956,161.782593 
z"/>
<path fill="#FCECEC" opacity="1.000000" stroke="none" 
	d="
M64.863998,171.842728 
	C64.868645,171.631561 65.150276,171.404999 65.707176,171.166901 
	C65.701965,171.379349 65.421478,171.603348 64.863998,171.842728 
z"/>
<path fill="#D6F6DE" opacity="1.000000" stroke="none" 
	d="
M86.035309,169.792633 
	C85.864204,169.998535 85.693459,169.993896 85.266762,169.983948 
	C85.009010,169.801117 85.007195,169.623566 85.013443,169.179184 
	C85.203339,168.899536 85.385178,168.886719 85.800438,169.017426 
	C86.033859,169.160934 86.035660,169.582062 86.035309,169.792633 
z"/>
<path fill="#F2FCF5" opacity="1.000000" stroke="none" 
	d="
M98.916153,167.848694 
	C99.387207,167.530396 99.858253,167.212082 100.612556,166.834396 
	C101.090981,167.648788 101.286148,168.522537 101.481323,169.396301 
	C100.779236,169.426712 100.077164,169.457123 99.170631,168.949524 
	C98.949509,168.223923 98.932831,168.036316 98.916153,167.848694 
z"/>
<path fill="#D6F6DE" opacity="1.000000" stroke="none" 
	d="
M98.632484,167.892548 
	C98.932831,168.036316 98.949509,168.223923 98.976837,168.693527 
	C98.741264,168.947968 98.495049,168.920410 97.888123,168.798355 
	C97.801208,168.448029 98.075012,168.192215 98.632484,167.892548 
z"/>
<path fill="#42AE5B" opacity="1.000000" stroke="none" 
	d="
M277.758911,148.739609 
	C275.250000,149.638474 272.452789,150.302414 269.227661,150.941574 
	C269.147064,150.488144 269.494354,150.059479 269.987610,149.394562 
	C272.579224,148.940430 275.024902,148.722565 277.758911,148.739609 
z"/>
<path fill="#E1FAE7" opacity="1.000000" stroke="none" 
	d="
M155.900543,163.065674 
	C155.150818,162.145142 154.237625,161.371216 154.349731,160.797684 
	C154.791275,158.538589 155.277954,156.186600 156.381195,154.225296 
	C156.681915,153.690674 160.277710,154.004593 160.501724,154.613388 
	C161.287109,156.747604 161.867020,159.350281 161.284576,161.427261 
	C160.998550,162.447281 157.986542,162.702850 155.900543,163.065674 
z"/>
<path fill="#B2E4BD" opacity="1.000000" stroke="none" 
	d="
M160.775818,149.498657 
	C160.923660,149.207947 161.143692,149.152847 161.701996,149.060486 
	C161.886459,149.458008 161.732681,149.892792 161.578903,150.327560 
	C161.335266,150.129807 161.091644,149.932037 160.775818,149.498657 
z"/>
<path fill="#56AC69" opacity="1.000000" stroke="none" 
	d="
M268.951904,154.286407 
	C269.160614,156.112396 269.034149,158.117874 268.821259,160.546112 
	C268.695465,158.801208 268.656097,156.633560 268.951904,154.286407 
z"/>
<path fill="#42AE5B" opacity="1.000000" stroke="none" 
	d="
M270.801605,153.498123 
	C270.921295,153.596024 270.509521,153.869492 270.262390,153.867966 
	C270.117218,153.506775 270.339417,153.351364 270.801605,153.498123 
z"/>
<path fill="#E1FAE7" opacity="1.000000" stroke="none" 
	d="
M237.614044,159.577087 
	C236.578125,161.583740 235.725998,163.261154 234.839920,165.005463 
	C230.549927,163.264893 228.969482,160.433594 230.202286,156.655060 
	C230.638397,155.318375 232.639679,153.604553 233.926361,153.604568 
	C237.372498,153.604645 237.742538,156.487228 237.614044,159.577087 
z"/>
<path fill="#FBF7F6" opacity="1.000000" stroke="none" 
	d="
M98.308105,147.685211 
	C96.348480,148.443695 94.383469,149.291122 92.335258,149.810440 
	C92.149277,149.857590 91.428535,147.795639 90.987961,146.367432 
	C91.460106,145.966797 91.900429,145.911850 92.748016,146.292633 
	C94.845116,147.044968 96.534958,147.361557 98.224792,147.678131 
	C98.224792,147.678131 98.280182,147.685242 98.308105,147.685211 
z"/>
<path fill="#D6F6DE" opacity="1.000000" stroke="none" 
	d="
M97.998466,147.409973 
	C96.534958,147.361557 94.845116,147.044968 93.078018,146.351486 
	C94.591217,146.363663 96.181679,146.752731 97.998466,147.409973 
z"/>
<path fill="#D6F6DE" opacity="1.000000" stroke="none" 
	d="
M81.156006,167.427002 
	C80.950668,167.587952 80.617279,167.508255 80.147964,167.196152 
	C80.350677,167.037964 80.689316,167.112167 81.156006,167.427002 
z"/>
<path fill="#D6F6DE" opacity="1.000000" stroke="none" 
	d="
M102.991508,157.269608 
	C103.153786,157.251907 103.332527,157.491455 103.384949,157.854156 
	C103.175087,157.827148 103.091530,157.677002 102.991508,157.269608 
z"/>
<path fill="#E1FAE7" opacity="1.000000" stroke="none" 
	d="
M115.875000,154.579819 
	C117.943207,154.663269 120.834908,154.545044 121.208107,155.457230 
	C121.980110,157.344162 121.711220,159.845825 121.243790,161.955856 
	C121.062737,162.773163 118.982201,163.915237 118.125443,163.667877 
	C116.733704,163.266068 114.806786,161.985565 114.605110,160.817184 
	C114.280609,158.937195 115.177391,156.846420 115.875000,154.579819 
z"/>
<path fill="#D6F6DE" opacity="1.000000" stroke="none" 
	d="
M107.011276,155.763275 
	C106.776573,155.810486 106.613327,155.633102 106.497757,155.428741 
	C106.475861,155.390045 106.643173,155.244324 106.903793,155.088806 
	C107.084396,155.029648 107.099258,155.529312 107.011276,155.763275 
z"/>
<path fill="#FCECEC" opacity="1.000000" stroke="none" 
	d="
M50.436310,158.860672 
	C50.180996,158.652405 50.266434,158.361313 50.724758,158.016541 
	C50.940739,158.230759 50.833881,158.502411 50.436310,158.860672 
z"/>
</svg>